<svg width="176" height="46" viewBox="0 0 176 46" fill="none" xmlns="http://www.w3.org/2000/svg">
<path d="M7.21977 17.8995C6.62721 17.8577 6.25687 17.4805 5.92664 16.967C4.365 14.5389 4.17074 11.9871 5.33783 9.32248C5.61317 8.69384 6.00042 8.1227 6.35452 7.53849C6.42327 7.42506 6.56787 7.33955 6.69304 7.29889C8.8202 6.60801 10.9503 5.92792 13.0787 5.24193C14.7578 4.70076 16.4349 4.15206 18.1143 3.61167C20.14 2.95981 22.1676 2.3146 24.1936 1.66387C25.8573 1.12954 27.5197 0.590636 29.1835 0.0566063C29.2842 0.024257 29.3939 -0.0084613 29.4957 0.00197938C30.9363 0.149619 32.3762 0.305595 33.8164 0.457707C34.9212 0.574396 36.0264 0.68712 37.1311 0.804063C38.5959 0.95912 40.0606 1.11631 41.5252 1.27307C42.7525 1.40443 43.9797 1.53601 45.2069 1.66835C46.8024 1.84042 48.3981 2.00978 49.9932 2.18699C51.3262 2.33509 52.66 2.47804 53.9901 2.65413C54.4682 2.71743 54.9412 2.8516 55.4073 2.99067C55.6597 3.06597 55.9233 3.20999 55.9754 3.53102C56.0264 3.84569 55.8264 4.06502 55.6039 4.20864C55.2022 4.4679 54.7828 4.69426 54.3693 4.93116C54.2547 4.99679 54.1348 5.05115 53.9894 5.12844C53.8892 5.15846 53.8143 5.16144 53.7449 5.18438C52.7219 5.52232 51.6996 5.86251 50.6773 6.20297C48.8768 6.80265 47.076 7.40164 45.276 8.00316C42.5241 8.92276 39.7727 9.84398 37.0212 10.7651C34.2779 11.6834 31.5354 12.6047 28.7906 13.5174C28.5192 13.6076 28.226 13.7242 27.9562 13.6926C27.411 13.6287 26.8749 13.4711 26.335 13.3527C24.1434 12.8722 21.9519 12.3914 19.7603 11.9117C17.1253 11.335 14.4898 10.7605 11.8551 10.1826C10.4776 9.88051 9.10145 9.57072 7.72383 9.26928C7.03843 9.1193 6.46894 9.4373 6.1628 10.134C5.8628 10.8168 5.79248 11.5475 5.78463 12.2942C5.77524 13.187 5.84392 14.0645 6.18238 14.8892C6.47435 15.6006 6.94141 16.0849 7.68148 16.1648C7.89128 16.1875 8.11035 16.1403 8.31477 16.184C10.2503 16.597 12.1836 17.0223 14.1174 17.4448C16.7918 18.0291 19.4662 18.6139 22.1406 19.1985C24.2681 19.6635 26.3954 20.1298 28.5238 20.5897C28.6301 20.6127 28.7535 20.6043 28.8572 20.569C29.587 20.3204 30.3148 20.0644 31.0414 19.8043C34.1268 18.7002 37.211 17.5917 40.2968 16.4891C42.1098 15.8412 43.9257 15.2029 45.7395 14.5576C47.7795 13.8318 49.8192 13.1048 51.8578 12.3744C52.5757 12.1171 53.2901 11.848 54.0062 11.5844C54.0688 11.6127 54.1629 11.6216 54.189 11.6725C54.4138 12.1107 54.6262 12.5566 54.8599 13.0362C54.5104 13.1792 54.1996 13.3123 53.8851 13.4338C52.4277 13.9966 50.9692 14.556 49.5113 15.1173C49.4572 15.1381 49.4054 15.1663 49.323 15.2038C48.8036 15.4 48.3136 15.5828 47.8241 15.7672C46.0207 16.4467 44.2173 17.1262 42.4142 17.8069C40.8288 18.4054 39.2441 19.0058 37.6588 19.6046C36.1282 20.1827 34.5972 20.7593 33.0666 21.3373C31.831 21.8039 30.5953 22.27 29.3608 22.7398C28.9293 22.904 28.5122 22.9982 28.0451 22.8365C27.5542 22.6666 27.0348 22.5969 26.5285 22.4802C24.6077 22.0377 22.6865 21.5973 20.7668 21.1495C18.9917 20.7355 17.2178 20.3149 15.4441 19.8935C13.6625 19.4702 11.8811 19.0453 10.1008 18.6153C9.13921 18.383 8.18004 18.1385 7.21977 17.8995Z" fill="#F16F52"/>
<path d="M7.20336 17.9092C8.17976 18.1384 9.13893 18.3828 10.1005 18.6151C11.8809 19.0452 13.6622 19.4701 15.4438 19.8934C17.2175 20.3148 18.9914 20.7353 20.7665 21.1494C22.6863 21.5972 24.6074 22.0375 26.5282 22.4801C27.0345 22.5967 27.5539 22.6664 28.0448 22.8363C28.5119 22.998 28.929 22.9038 29.3605 22.7396C30.595 22.2698 31.8307 21.8038 33.0663 21.3372C34.5969 20.7592 36.1279 20.1825 37.6585 19.6044C39.2438 19.0057 40.8286 18.4052 42.4139 17.8067C44.217 17.1261 46.0204 16.4466 47.8238 15.7671C48.3133 15.5826 48.8034 15.3999 49.3116 15.2197C49.8087 15.299 50.2856 15.3936 50.7664 15.4462C51.4027 15.5158 52.0426 15.5447 52.6797 15.6059C53.1686 15.6529 53.6661 15.6737 54.1405 15.7964C54.6076 15.9171 54.9946 16.2421 55.0372 16.8168C55.06 17.1253 54.957 17.4484 54.8888 17.7591C54.8756 17.8191 54.764 17.8619 54.6912 17.8954C54.548 17.9612 54.4002 18.0149 54.2225 18.0803C54.1266 18.1 54.0609 18.1068 53.9988 18.127C49.8686 19.4722 45.7386 20.8179 41.6089 22.165C38.1947 23.2786 34.7811 24.3945 31.3669 25.5083C27.8828 26.6448 24.398 27.7785 20.9153 28.9201C20.722 28.9835 20.5577 28.9722 20.3729 28.8925C19.7231 28.6125 19.0677 28.348 18.4143 28.0777C14.457 26.4411 10.4996 24.8046 6.54232 23.1679C5.34425 22.6723 4.14706 22.1742 2.94654 21.6859C2.87504 21.6569 2.74124 21.6697 2.69725 21.7232C2.0209 22.5464 1.69349 23.5199 1.75513 24.6253C1.82375 25.8559 2.2549 26.9507 2.89235 27.9521C2.95281 28.047 3.0558 28.1327 3.1555 28.1708C5.00033 28.875 6.84748 29.5719 8.6945 30.2693C12.6528 31.7637 16.6118 33.256 20.5684 34.756C20.7652 34.8306 20.9333 34.8401 21.1338 34.7665C23.1171 34.0386 25.1023 33.3164 27.0901 32.6034C31.3487 31.076 35.601 29.5267 39.8714 28.0398C43.6416 26.7271 47.4291 25.4737 51.2172 24.224C52.1738 23.9084 53.1616 23.7066 54.1551 23.4555C54.2554 23.4583 54.3356 23.4581 54.4312 23.4647C54.4883 23.4804 54.53 23.4893 54.5907 23.5035C55.1239 23.6675 55.311 23.8785 55.2175 24.3058C55.1028 24.8299 54.9057 25.3123 54.3522 25.4631C54.1298 25.5237 53.9133 25.6107 53.6949 25.688C52.8209 25.9976 51.9473 26.3081 51.0549 26.617C50.8653 26.6819 50.6944 26.7481 50.504 26.8146C50.4051 26.8379 50.3247 26.8574 50.2466 26.8847C48.7118 27.4215 47.1779 27.9611 45.6427 28.4963C41.5469 29.9243 37.4509 31.351 33.3545 32.7769C31.451 33.4394 29.5458 34.0963 27.6429 34.7611C27.1125 34.9465 26.5876 35.1508 26.0448 35.3464C25.9634 35.3828 25.8974 35.4192 25.8122 35.451C25.6892 35.4711 25.5828 35.4869 25.4818 35.5219C24.0894 36.0047 22.6964 36.4859 21.307 36.9792C21.0789 37.0601 20.8744 37.0763 20.6405 36.995C17.9117 36.0474 15.1799 35.1102 12.4492 34.1693C11.7145 33.9162 10.9807 33.6597 10.2358 33.3904C10.0652 33.3152 9.90524 33.2544 9.73129 33.1824C8.22029 32.5766 6.72392 31.9798 5.22558 31.389C4.95834 31.2837 4.68299 31.2031 4.41138 31.1111C4.36126 31.0591 4.31925 30.9863 4.25975 30.9584C3.6941 30.6923 3.10542 30.4757 2.56295 30.1623C1.92923 29.7962 1.45188 29.213 1.04903 28.5666C0.127744 27.0884 -0.119802 25.4413 0.049689 23.6916C0.148745 22.6691 0.388501 21.6902 0.816808 20.7742C1.09645 20.1762 1.44957 19.6409 1.9515 19.2312C2.30049 18.9464 2.71385 18.9057 3.11059 18.8137C4.32255 18.5327 5.53903 18.2752 6.75385 18.0091C6.89802 17.9775 7.04276 17.949 7.20336 17.9092Z" fill="#435F70"/>
<path d="M54.0063 11.5615C53.2895 11.8477 52.5751 12.1168 51.8572 12.374C49.8186 13.1045 47.7789 13.8315 45.7388 14.5573C43.9251 15.2026 42.1092 15.8409 40.2962 16.4887C37.2103 17.5914 34.1262 18.6999 31.0408 19.804C30.3142 20.064 29.5864 20.3201 28.8565 20.5687C28.7529 20.604 28.6295 20.6124 28.5232 20.5894C26.3948 20.1295 24.2675 19.6632 22.14 19.1982C19.4656 18.6136 16.7912 18.0287 14.1167 17.4445C12.1829 17.022 10.2496 16.5966 8.31415 16.1836C8.10974 16.14 7.89066 16.1871 7.68087 16.1645C6.94079 16.0846 6.47373 15.6002 6.18176 14.8889C5.84331 14.0642 5.77463 13.1866 5.78401 12.2939C5.79186 11.5471 5.86218 10.8164 6.16218 10.1337C6.46832 9.43697 7.03781 9.11898 7.72321 9.26895C9.10083 9.57039 10.4769 9.88019 11.8544 10.1823C14.4892 10.7602 17.1246 11.3347 19.7596 11.9114C21.9513 12.3911 24.1428 12.8719 26.3343 13.3524C26.8743 13.4708 27.4104 13.6284 27.9556 13.6923C28.2254 13.7239 28.5186 13.6073 28.79 13.517C31.5348 12.6044 34.2773 11.683 37.0206 10.7647C39.7721 9.84366 42.5235 8.92243 45.2754 8.00284C47.0754 7.40131 48.8762 6.80232 50.6767 6.20265C51.699 5.86218 52.7213 5.52199 53.7442 5.18405C53.8137 5.16111 53.8886 5.15814 53.9787 5.14648C54.001 5.39941 54.0094 5.65172 54.0094 5.90404C54.0096 7.78236 54.008 9.66069 54.0063 11.5615Z" fill="#FEFEFD"/>
<path d="M54.1353 23.4528C53.1619 23.7069 52.1741 23.9087 51.2175 24.2243C47.4294 25.474 43.6418 26.7274 39.8716 28.0401C35.6013 29.527 31.349 31.0763 27.0904 32.6037C25.1025 33.3167 23.1174 34.0389 21.1341 34.7668C20.9336 34.8404 20.7655 34.8309 20.5687 34.7563C16.6121 33.2563 12.6531 31.764 8.69476 30.2696C6.84774 29.5722 5.00059 28.8753 3.15577 28.1711C3.05606 28.133 2.95307 28.0473 2.89261 27.9524C2.25517 26.951 1.82401 25.8562 1.75539 24.6256C1.69376 23.5202 2.02117 22.5467 2.69751 21.7235C2.7415 21.67 2.8753 21.6572 2.9468 21.6862C4.14733 22.1745 5.34451 22.6726 6.54259 23.1682C10.4999 24.8049 14.4572 26.4414 18.4146 28.078C19.0679 28.3482 19.7233 28.6128 20.3732 28.8928C20.558 28.9725 20.7223 28.9838 20.9155 28.9204C24.3982 27.7788 27.8831 26.6451 31.3672 25.5086C34.7814 24.3948 38.195 23.2789 41.6092 22.1653C45.7388 20.8182 49.8689 19.4725 53.999 18.1273C54.0611 18.1071 54.1269 18.1003 54.2103 18.0947C54.2284 18.1424 54.2272 18.1825 54.2255 18.2643C54.2228 18.3979 54.2204 18.4899 54.2025 18.5875C53.9755 18.8436 54.1256 19.1439 54.1198 19.4102C54.0964 20.4825 54.125 21.5561 54.1336 22.6292C54.1357 22.9038 54.1348 23.1783 54.1353 23.4528Z" fill="#FEFEFE"/>
<path d="M10.2464 33.4053C10.9806 33.6602 11.7144 33.9167 12.4491 34.1699C15.1799 35.1108 17.9116 36.0479 20.6404 36.9956C20.8744 37.0768 21.0788 37.0607 21.3069 36.9797C22.6964 36.4865 24.0893 36.0053 25.4818 35.5225C25.5827 35.4875 25.6892 35.4717 25.8163 35.4708C25.9005 35.5486 25.9566 35.6401 26.0233 35.6504C26.4574 35.7179 26.8935 35.7714 27.3295 35.8226C27.8336 35.8817 28.3392 35.9258 28.8423 35.9928C29.0407 36.0192 29.2328 36.0982 29.4304 36.1366C29.531 36.1562 29.6387 36.1278 29.7413 36.14C30.0312 36.1745 30.3195 36.2261 30.6096 36.2567C30.8105 36.2779 31.0151 36.2598 31.215 36.2865C31.9047 36.3787 32.5931 36.4824 33.2819 36.5827C33.5209 36.6175 33.7593 36.6569 33.9983 36.6907C34.2089 36.7205 34.4204 36.7427 34.631 36.7732C35.0496 36.834 35.4676 36.9006 35.8864 36.9599C36.1297 36.9943 36.3743 37.0163 36.6178 37.0489C37.0642 37.1088 37.5092 37.1846 37.9567 37.2303C38.2821 37.2635 38.6369 37.1384 38.8687 37.4997C39.0968 37.3602 39.3139 37.2564 39.5005 37.1069C39.808 36.8605 40.0982 36.5877 40.3911 36.3199C40.5585 36.1669 40.8123 36.1607 40.9252 35.9062C40.9794 35.7841 41.0896 35.6853 41.1888 35.595C41.7258 35.1061 42.2672 34.6231 42.8074 34.1384C42.8829 34.0706 42.9593 34.0041 43.0358 33.9378C43.3431 33.6713 43.6536 33.4091 43.9569 33.1373C44.186 32.932 44.395 32.6979 44.633 32.5066C44.9264 32.2708 45.2412 32.0669 45.5449 31.8462C45.5692 31.8286 45.5745 31.782 45.5967 31.7579C45.7782 31.5613 45.9536 31.3565 46.1467 31.1745C46.3555 30.9777 46.5859 30.8085 46.7966 30.6139C46.843 30.571 46.8461 30.4717 46.8718 30.401C46.8744 30.4037 46.8695 30.3981 46.8882 30.3996C47.0468 30.3022 47.177 30.1761 47.3288 30.1104C47.6163 29.986 47.8483 29.7999 48.041 29.5354C48.1343 29.4074 48.2738 29.3214 48.3789 29.202C48.4225 29.1524 48.431 29.0654 48.4551 28.9948C48.4548 28.9943 48.4558 28.995 48.4746 28.9954C48.6219 28.8998 48.7526 28.8073 48.8784 28.7072C49.1408 28.4985 49.4023 28.2884 49.6607 28.0738C49.8324 27.9311 50 27.7821 50.166 27.6313C50.4865 27.3403 50.8046 27.046 51.1263 26.7507C51.1117 26.7142 51.0926 26.6665 51.0735 26.6189C51.9473 26.3087 52.8209 25.9982 53.6948 25.6886C53.9133 25.6112 54.1298 25.5243 54.3522 25.4637C54.9056 25.3129 55.1028 24.8304 55.2175 24.3063C55.311 23.8791 55.1238 23.668 54.6025 23.4916C54.9422 23.1627 55.2862 22.8477 55.6367 22.5417C55.9157 22.2981 56.2027 22.0655 56.49 21.8506C56.4983 21.9337 56.5029 21.9942 56.5074 22.0547C56.5034 23.2134 56.499 24.3721 56.4956 25.5307C56.495 25.7373 56.498 25.944 56.4643 26.1661C56.3948 26.2388 56.3604 26.2961 56.325 26.3549C56.324 26.3565 56.3209 26.3586 56.3023 26.3542C56.1415 26.4468 55.9877 26.5284 55.8596 26.6442C55.6245 26.8567 55.4028 27.0875 55.179 27.3148C55.0845 27.4107 55.0041 27.5235 54.9083 27.6176C54.6975 27.8247 54.4783 28.0216 54.2682 28.2295C54.19 28.3068 54.1376 28.4169 54.0563 28.4887C53.627 28.8676 53.1782 29.2214 52.7636 29.6185C52.3927 29.9736 52.0706 30.3898 51.7032 30.7498C51.2072 31.2359 50.685 31.6897 50.1831 32.169C50.111 32.2378 50.0902 32.3712 50.0414 32.4691C50.0372 32.4635 50.0451 32.4748 50.0263 32.4737C49.9274 32.5357 49.8432 32.5936 49.7678 32.6629C49.5337 32.8777 49.3169 33.1197 49.065 33.3047C48.9418 33.3952 48.8827 33.4638 48.9047 33.6271C48.8881 33.6505 48.8757 33.6599 48.8423 33.6628C48.6942 33.7432 48.5647 33.8262 48.4356 33.9101C48.3464 33.968 48.2455 34.0128 48.1722 34.0892C48.0848 34.1803 48.0318 34.3109 47.9454 34.4036C47.6314 34.7407 47.3115 35.0714 46.9888 35.3986C46.9381 35.45 46.8512 35.4576 46.7989 35.5079C46.5606 35.7368 46.3265 35.9712 46.0978 36.2115C46.0719 36.2387 46.0892 36.3156 46.0854 36.3682C46.0843 36.3669 46.0867 36.3694 46.0668 36.3681C45.8224 36.3857 45.341 36.8809 45.2978 37.1302C45.2941 37.1263 45.3015 37.1337 45.2807 37.1314C45.1836 37.1498 45.0673 37.1432 45.0375 37.1957C44.8467 37.5329 44.5614 37.7541 44.2879 37.9955C43.9398 38.3029 43.6023 38.6253 43.2675 38.9502C43.1067 39.1063 42.987 39.344 42.8037 39.4325C42.6364 39.5133 42.6174 39.5906 42.6331 39.7583C42.6064 39.7912 42.5851 39.8099 42.5462 39.8293C42.3212 39.8708 42.1881 39.9968 42.1471 40.2296C42.146 40.2297 42.1438 40.2291 42.1314 40.2319C42.1105 40.2498 42.1019 40.265 42.0924 40.2812C42.0914 40.2823 42.0941 40.283 42.0738 40.279C41.986 40.2937 41.9032 40.2917 41.8541 40.3354C41.7295 40.4463 41.6264 40.586 41.5029 40.6986C41.3795 40.8111 41.2322 40.893 41.1124 41.0094C40.9009 41.2151 40.7017 41.4361 40.4987 41.6521C40.3485 41.8117 40.2007 41.974 40.0513 42.1344C39.9716 42.22 39.8982 42.3161 39.8082 42.3859C39.7108 42.4614 39.574 42.4876 39.4957 42.5783C39.3431 42.755 39.2324 42.9755 39.078 43.1498C39.0026 43.2349 38.8672 43.3011 38.7606 43.2985C38.5365 43.2931 38.3141 43.2294 38.0897 43.203C37.7921 43.1679 37.4921 43.1558 37.1952 43.1156C36.6463 43.0412 36.0989 42.9537 35.5509 42.8714C35.405 42.8495 35.2584 42.8313 35.1135 42.8033C34.6839 42.7204 34.2567 42.6207 33.8253 42.5519C33.4612 42.4939 33.091 42.4831 32.7265 42.4277C32.2388 42.3536 31.7534 42.26 31.2681 42.1682C31.0285 42.1228 30.7929 42.0507 30.5526 42.012C30.1523 41.9475 29.7495 41.9007 29.3479 41.8455C28.9881 41.7961 28.6279 41.7494 28.2688 41.6943C27.9206 41.6408 27.5745 41.5705 27.2259 41.521C26.7668 41.4559 26.3049 41.4142 25.8467 41.3427C25.5235 41.2923 25.2064 41.1939 24.8831 41.145C24.5948 41.1014 24.2988 41.1173 24.0112 41.0703C23.0985 40.9215 22.1885 40.7527 21.2767 40.5974C20.8205 40.5196 20.3631 40.4497 19.9052 40.3848C19.612 40.3432 19.318 40.1891 19.0057 40.3739C18.9684 40.3708 18.9472 40.3674 18.9197 40.3459C18.5615 40.2371 18.2128 40.1247 17.8569 40.0601C17.1277 39.9277 16.3956 39.8129 15.6625 39.71C15.5035 39.6876 15.3351 39.746 15.1551 39.7691C15.1179 39.7678 15.0967 39.7647 15.0684 39.7443C14.6444 39.6373 14.2298 39.5313 13.8101 39.4638C13.5764 39.4263 13.3341 39.4529 13.0796 39.4511C13.0423 39.4477 13.0212 39.4438 12.9935 39.4227C12.5923 39.2209 12.1795 39.1537 11.7526 39.1104C11.127 39.0469 10.5071 38.9172 9.88367 38.8243C9.83887 38.8176 9.78543 38.8807 9.71795 38.9118C9.66403 38.9083 9.62817 38.9044 9.5853 38.8823C9.29616 38.7913 9.01648 38.7024 8.7312 38.6505C8.45759 38.6007 8.17624 38.6036 7.90172 38.5583C7.36111 38.469 6.821 38.3729 6.28477 38.2569C6.11451 38.22 5.90527 38.1582 5.8049 38.0251C5.59996 37.7533 5.46472 37.4196 5.28628 37.1219C5.03532 36.7033 4.90631 36.2297 4.80663 35.7551C4.68037 35.1539 4.78009 34.5615 5.03043 34.0091C5.12003 33.8114 5.23324 33.623 5.35646 33.448C5.51742 33.2194 5.6631 32.9623 5.99472 33.0002C6.32537 33.0379 6.66106 33.0244 6.99111 33.0662C7.51902 33.1329 8.04285 33.2389 8.57088 33.3043C8.85767 33.3399 9.14956 33.3259 9.45776 33.3327C9.51362 33.3328 9.55087 33.3344 9.59311 33.3553C9.81141 33.4561 10.0225 33.5933 10.2464 33.4053Z" fill="#FEFEFD"/>
<path d="M9.59326 38.8997C9.62912 38.9037 9.66498 38.9076 9.73111 38.9276C10.0825 39.0007 10.4027 39.0654 10.725 39.1133C11.4831 39.2262 12.2423 39.331 13.001 39.4392C13.0221 39.4431 13.0433 39.4469 13.0947 39.4646C13.3573 39.519 13.5889 39.566 13.8221 39.5987C14.2397 39.6572 14.6583 39.7072 15.0765 39.7608C15.0977 39.7639 15.1189 39.767 15.1696 39.7843C15.3196 39.8184 15.44 39.839 15.5607 39.8581C16.4248 39.9943 17.2887 40.132 18.1533 40.265C18.4103 40.3046 18.669 40.3308 18.9269 40.3632C18.9481 40.3666 18.9693 40.37 19.0208 40.3869C19.1716 40.4264 19.2913 40.459 19.4127 40.4773C20.5582 40.6502 21.7044 40.8168 22.8494 40.9931C23.6861 41.122 24.5207 41.267 25.3573 41.3971C26.9161 41.6394 28.4756 41.8772 30.035 42.1149C31.4733 42.3342 32.9125 42.546 34.3501 42.7702C35.6497 42.9729 36.9464 43.1998 38.2478 43.3875C38.5214 43.427 38.8259 43.578 39.0919 43.3035C39.4506 42.9334 39.8204 42.5762 40.187 42.2154C40.6258 41.7835 41.0692 41.3571 41.5046 40.9211C41.7086 40.7168 41.8986 40.4957 42.095 40.2822C42.095 40.2822 42.0923 40.2815 42.105 40.2764C42.1326 40.2615 42.1417 40.2472 42.1447 40.2283C42.1447 40.2283 42.1469 40.2289 42.1645 40.2263C42.3097 40.0917 42.4372 39.9597 42.5648 39.8278C42.586 39.8091 42.6073 39.7904 42.6503 39.7524C43.3669 39.0679 44.0645 38.4059 44.7551 37.7353C44.9482 37.5477 45.1206 37.3344 45.3024 37.133C45.3024 37.133 45.2951 37.1256 45.3163 37.1275C45.5876 36.8758 45.8376 36.6222 46.0876 36.3686C46.0876 36.3686 46.0852 36.3661 46.1033 36.3649C46.2441 36.2594 46.3728 36.1622 46.4887 36.0493C46.9675 35.5832 47.4452 35.1157 47.9178 34.6421C48.2372 34.3221 48.5476 33.9911 48.862 33.6651C48.8766 33.6591 48.8891 33.6497 48.9206 33.6184C49.2901 33.2722 49.6395 32.9458 49.985 32.6145C50.0177 32.5832 50.0263 32.5216 50.0461 32.4741C50.0461 32.4741 50.0382 32.4627 50.0594 32.4668C50.1539 32.416 50.2338 32.3694 50.2993 32.3052C50.6726 31.9393 51.04 31.5662 51.414 31.2012C52.1046 30.5273 52.7981 29.8571 53.4908 29.1857C54.1228 28.5731 54.7595 27.9662 55.3858 27.3465C55.7073 27.0284 56.0104 26.6881 56.3219 26.3578C56.3219 26.3578 56.3249 26.3557 56.3405 26.3491C56.3939 26.3041 56.4318 26.2658 56.4697 26.2275C57.6391 26.2275 58.8085 26.2275 59.9779 26.2275C59.9855 26.2569 59.9932 26.2863 60.0009 26.3156C59.9269 26.3931 59.8556 26.4741 59.7784 26.5476C56.9704 29.2209 54.162 31.8937 51.3533 34.5662C48.1967 37.5698 45.0396 40.5729 41.8831 43.5766C41.0692 44.3511 40.2591 45.1306 39.439 45.8971C39.36 45.9709 39.2157 46.0135 39.1126 45.9956C37.2624 45.6739 35.414 45.3398 33.5649 45.0103C31.4893 44.6404 29.4133 44.2734 27.3377 43.9032C25.2454 43.5301 23.1536 43.1532 21.0612 42.7806C18.6847 42.3575 16.3078 41.9381 13.9313 41.5157C12.3503 41.2346 10.7698 40.9506 9.18898 40.6686C7.84288 40.4284 6.49714 40.1857 5.14988 39.9536C4.94562 39.9184 4.78384 39.8381 4.63599 39.6774C3.74794 38.7119 3.11019 37.6024 2.9509 36.2119C2.80875 34.9709 3.04514 33.8023 3.55697 32.7024C3.80649 32.1661 4.11725 31.6643 4.40628 31.1288C4.68388 31.2029 4.95924 31.2834 5.22648 31.3888C6.72481 31.9796 8.22119 32.5763 9.72549 33.1987C9.67062 33.2342 9.60848 33.2419 9.54477 33.2499C9.55946 33.2782 9.57427 33.3067 9.58907 33.3352C9.55182 33.3336 9.51457 33.332 9.44409 33.3179C8.28816 33.1516 7.16577 32.995 6.04232 32.8482C5.92545 32.8329 5.77086 32.8296 5.6871 32.8987C5.08082 33.3986 4.70687 34.0657 4.65838 34.9024C4.59096 36.0658 5.03076 37.0636 5.59155 38.0052C5.71342 38.2098 5.8695 38.381 6.13139 38.4149C6.85619 38.509 7.57714 38.6381 8.30085 38.743C8.73044 38.8053 9.16238 38.8482 9.59326 38.8997Z" fill="#FAC953"/>
<path d="M54.2188 18.5812C54.2211 18.4893 54.2234 18.3974 54.2309 18.2832C54.617 18.4418 55.0051 18.4254 55.4133 18.382C55.9062 18.3296 56.4142 18.3135 56.9026 18.3866C57.3231 18.4495 57.7421 18.6195 58.1304 18.8167C58.4736 18.9909 58.5343 19.7489 58.2977 20.0709C58.2113 20.1884 58.1899 20.3615 58.1289 20.5041C58.0906 20.5936 58.0903 20.7887 57.9031 20.5887C57.9115 20.7348 57.9175 20.8402 57.9241 20.9557C57.775 20.921 57.6591 20.8941 57.521 20.867C57.4987 20.8669 57.493 20.8615 57.5006 20.8454C57.7401 20.5416 58.0037 20.277 58.1956 19.96C58.4122 19.6022 58.3428 19.2336 58.0263 18.983C57.8261 18.8246 57.5802 18.6828 57.3409 18.6479C56.8643 18.5784 56.3782 18.569 55.896 18.5695C55.3476 18.5702 54.7993 18.6088 54.2455 18.6165C54.233 18.5951 54.2259 18.5882 54.2188 18.5812Z" fill="#1D3A09"/>
<path d="M56.523 22.0508C56.502 21.9941 56.4975 21.9335 56.4961 21.834C56.7142 21.5919 56.9291 21.3888 57.147 21.1895C57.1499 21.1931 57.1555 21.2008 57.1555 21.2008C57.1291 21.2897 57.124 21.4351 57.0729 21.4582C56.8146 21.5747 56.6936 21.8262 56.523 22.0508Z" fill="#1D3A09"/>
<path d="M57.5013 20.8693C57.5043 20.9663 57.5043 21.0608 57.5043 21.1734C57.4026 21.1797 57.3001 21.186 57.1773 21.1962C57.157 21.2 57.1514 21.1923 57.1556 21.1725C57.2707 21.0555 57.3817 20.9584 57.4926 20.8613C57.4926 20.8613 57.4984 20.8668 57.5013 20.8693Z" fill="#1D3A09"/>
<path d="M56.4644 26.216C56.4302 26.2666 56.3922 26.3049 56.3398 26.3482C56.3597 26.2961 56.3941 26.2388 56.4462 26.1798C56.4641 26.178 56.4608 26.2036 56.4644 26.216Z" fill="#FDF3CA"/>
<path d="M26.0605 35.347C26.588 35.1514 27.1129 34.947 27.6433 34.7617C29.5462 34.0969 31.4513 33.44 33.3549 32.7774C37.4512 31.3516 41.5473 29.9248 45.643 28.4969C47.1782 27.9617 48.7122 27.4221 50.2469 26.8853C50.325 26.858 50.4054 26.8385 50.5196 26.8242C50.7079 26.9826 50.557 27.0514 50.4809 27.1198C49.8951 27.6461 49.3035 28.1647 48.7179 28.6912C48.6204 28.7788 48.5429 28.8931 48.4562 28.995C48.4562 28.995 48.4552 28.9944 48.4382 28.9968C48.2837 29.108 48.1395 29.2078 48.01 29.3271C47.6269 29.68 47.2495 30.0405 46.8699 30.3981C46.8699 30.3981 46.8748 30.4037 46.8557 30.4048C46.2162 30.9506 45.5936 31.4923 44.976 32.0408C44.2687 32.669 43.567 33.3046 42.861 33.9345C42.1487 34.57 41.4348 35.2032 40.7206 35.836C40.2421 36.2599 39.7646 36.6851 39.2796 37.0999C39.2026 37.1657 39.0839 37.2218 38.9919 37.2104C37.4797 37.0237 35.9683 36.8283 34.4575 36.6288C32.9993 36.4363 31.5416 36.239 30.0841 36.0399C28.8061 35.8653 27.5285 35.6872 26.2517 35.5019C26.183 35.4919 26.1241 35.4005 26.0605 35.347Z" fill="#FCC852"/>
<path d="M57.4997 20.8452C57.3811 20.9584 57.2701 21.0555 57.1521 21.1688C56.93 21.388 56.7151 21.591 56.4932 21.8106C56.2028 22.0646 55.9158 22.2972 55.6367 22.5408C55.2862 22.8467 54.9423 23.1617 54.5836 23.4854C54.53 23.4889 54.4883 23.48 54.4204 23.4504C54.2423 23.401 54.2358 23.2824 54.2363 23.1456C54.2388 22.5597 54.2328 21.9738 54.2348 21.388C54.2378 20.4689 54.2447 19.5499 54.25 18.6308C54.7984 18.6087 55.3467 18.57 55.8951 18.5694C56.3773 18.5688 56.8634 18.5783 57.34 18.6478C57.5793 18.6827 57.8252 18.8244 58.0254 18.9829C58.3419 19.2334 58.4112 19.6021 58.1946 19.9599C58.0028 20.2768 57.7392 20.5414 57.4997 20.8452Z" fill="#F9C954"/>
<path d="M26.0453 35.3462C26.1242 35.3997 26.1831 35.4911 26.2519 35.5011C27.5286 35.6865 28.8062 35.8645 30.0842 36.0391C31.5417 36.2383 32.9994 36.4355 34.4576 36.628C35.9685 36.8275 37.4798 37.0229 38.9921 37.2097C39.0841 37.221 39.2027 37.1649 39.2797 37.0991C39.7647 36.6844 40.2423 36.2591 40.7207 35.8352C41.4349 35.2024 42.1489 34.5692 42.8611 33.9337C43.5671 33.3038 44.2689 32.6682 44.9761 32.0401C45.5937 31.4915 46.2163 30.9498 46.8532 30.4014C46.8467 30.471 46.8435 30.5703 46.7971 30.6131C46.5864 30.8078 46.356 30.977 46.1472 31.1738C45.9541 31.3557 45.7788 31.5605 45.5973 31.7571C45.575 31.7812 45.5697 31.8278 45.5454 31.8455C45.2417 32.0662 44.927 32.27 44.6335 32.5059C44.3955 32.6971 44.1866 32.9313 43.9574 33.1366C43.6541 33.4084 43.3436 33.6705 43.0364 33.937C42.9598 34.0034 42.8834 34.0699 42.8079 34.1376C42.2677 34.6224 41.7263 35.1054 41.1893 35.5943C41.0901 35.6846 40.98 35.7834 40.9258 35.9055C40.8128 36.16 40.559 36.1662 40.3916 36.3192C40.0987 36.5869 39.8086 36.8598 39.5011 37.1062C39.3144 37.2557 39.0974 37.3595 38.8692 37.499C38.6375 37.1376 38.2826 37.2628 37.9573 37.2296C37.5097 37.1839 37.0647 37.108 36.6183 37.0482C36.3749 37.0155 36.1302 36.9936 35.887 36.9591C35.4681 36.8999 35.0502 36.8332 34.6315 36.7725C34.421 36.742 34.2094 36.7198 33.9988 36.69C33.7598 36.6562 33.5214 36.6167 33.2825 36.5819C32.5937 36.4817 31.9052 36.378 31.2155 36.2858C31.0156 36.2591 30.811 36.2772 30.6102 36.256C30.32 36.2253 30.0317 36.1738 29.7418 36.1393C29.6392 36.1271 29.5316 36.1554 29.4309 36.1359C29.2333 36.0975 29.0412 36.0184 28.8429 35.992C28.3397 35.9251 27.8341 35.881 27.3301 35.8218C26.894 35.7707 26.4579 35.7172 26.0238 35.6497C25.9572 35.6393 25.901 35.5479 25.8359 35.4746C25.8979 35.419 25.9638 35.3826 26.0453 35.3462Z" fill="#FCF3CC"/>
<path d="M48.4746 28.995C48.5426 28.8927 48.6201 28.7784 48.7175 28.6908C49.3032 28.1643 49.8947 27.6457 50.4805 27.1194C50.5566 27.051 50.7075 26.9822 50.5388 26.8236C50.6944 26.7483 50.8653 26.6821 51.0548 26.6172C51.0926 26.6662 51.1117 26.7138 51.1263 26.7504C50.8047 27.0457 50.4866 27.3399 50.166 27.631C50 27.7817 49.8324 27.9307 49.6607 28.0734C49.4023 28.2881 49.1408 28.4981 48.8784 28.7069C48.7526 28.8069 48.6219 28.8995 48.4746 28.995Z" fill="#FCF3CC"/>
<path d="M54.2445 18.6174C54.2447 19.5509 54.2377 20.47 54.2347 21.389C54.2328 21.9749 54.2388 22.5608 54.2363 23.1466C54.2357 23.2834 54.2423 23.4021 54.4049 23.4446C54.3356 23.4587 54.2554 23.4589 54.1551 23.4562C54.1345 23.1786 54.1354 22.9041 54.1333 22.6296C54.1247 21.5565 54.0961 20.4828 54.1195 19.4106C54.1253 19.1442 53.9752 18.8439 54.2022 18.5879C54.2249 18.589 54.232 18.596 54.2445 18.6174Z" fill="#FBF5C3"/>
<path d="M42.073 40.2783C41.8969 40.4958 41.7069 40.7169 41.5028 40.9212C41.0674 41.3572 40.6241 41.7836 40.1853 42.2155C39.8187 42.5764 39.4488 42.9335 39.0901 43.3036C38.8241 43.5781 38.5196 43.4271 38.246 43.3876C36.9446 43.1999 35.648 42.973 34.3483 42.7703C32.9107 42.5462 31.4715 42.3343 30.0333 42.115C28.4738 41.8773 26.9144 41.6396 25.3555 41.3972C24.519 41.2671 23.6843 41.1221 22.8476 40.9932C21.7027 40.8169 20.5564 40.6503 19.411 40.4774C19.2895 40.4591 19.1698 40.4265 19.0352 40.3867C19.3172 40.1884 19.6112 40.3426 19.9044 40.3841C20.3623 40.449 20.8197 40.519 21.2759 40.5967C22.1877 40.7521 23.0977 40.9208 24.0104 41.0697C24.298 41.1166 24.594 41.1008 24.8823 41.1444C25.2056 41.1933 25.5227 41.2916 25.8459 41.342C26.3041 41.4135 26.766 41.4552 27.2251 41.5203C27.5737 41.5698 27.9198 41.6401 28.268 41.6936C28.6271 41.7488 28.9873 41.7954 29.3471 41.8448C29.7487 41.9 30.1515 41.9469 30.5518 42.0114C30.7921 42.0501 31.0277 42.1222 31.2673 42.1675C31.7526 42.2593 32.238 42.353 32.7257 42.4271C33.0902 42.4824 33.4604 42.4933 33.8245 42.5513C34.2559 42.62 34.6831 42.7198 35.1127 42.8027C35.2576 42.8307 35.4042 42.8488 35.5501 42.8707C36.0981 42.953 36.6455 43.0405 37.1944 43.1149C37.4913 43.1551 37.7913 43.1672 38.0889 43.2023C38.3133 43.2288 38.5357 43.2925 38.7598 43.2979C38.8664 43.3004 39.0018 43.2343 39.0772 43.1491C39.2316 42.9748 39.3423 42.7543 39.4949 42.5777C39.5732 42.487 39.71 42.4607 39.8074 42.3852C39.8974 42.3154 39.9708 42.2194 40.0505 42.1338C40.1999 41.9733 40.3477 41.8111 40.4979 41.6514C40.7009 41.4354 40.9001 41.2144 41.1116 41.0088C41.2314 40.8923 41.3787 40.8105 41.5021 40.6979C41.6256 40.5853 41.7288 40.4456 41.8533 40.3347C41.9024 40.291 41.9852 40.2931 42.073 40.2783Z" fill="#FDF3C8"/>
<path d="M56.3022 26.3535C56.0093 26.6882 55.7062 27.0285 55.3847 27.3466C54.7584 27.9662 54.1217 28.5732 53.4897 29.1858C52.7971 29.8572 52.1035 30.5274 51.4129 31.2013C51.0389 31.5663 50.6715 31.9394 50.2982 32.3053C50.2327 32.3695 50.1528 32.4161 50.0625 32.4725C50.09 32.3705 50.1109 32.2371 50.183 32.1683C50.6848 31.6891 51.207 31.2352 51.7031 30.7491C52.0705 30.3891 52.3926 29.9729 52.7635 29.6178C53.1781 29.2207 53.6269 28.8669 54.0561 28.488C54.1374 28.4162 54.1899 28.3062 54.268 28.2288C54.4782 28.0209 54.6973 27.824 54.9081 27.6169C55.0039 27.5228 55.0844 27.41 55.1788 27.3141C55.4026 27.0868 55.6243 26.856 55.8595 26.6435C55.9876 26.5277 56.1414 26.4461 56.3022 26.3535Z" fill="#FDF3CA"/>
<path d="M48.8418 33.6621C48.5462 33.9912 48.2358 34.3221 47.9164 34.6422C47.4438 35.1157 46.9661 35.5833 46.4873 36.0494C46.3714 36.1623 46.2427 36.2594 46.103 36.3663C46.0888 36.3149 46.0714 36.238 46.0973 36.2108C46.3261 35.9705 46.5602 35.7362 46.7984 35.5072C46.8507 35.4569 46.9376 35.4493 46.9883 35.3979C47.311 35.0707 47.6309 34.74 47.945 34.4029C48.0314 34.3102 48.0843 34.1796 48.1718 34.0885C48.2451 34.0121 48.346 33.9673 48.4351 33.9094C48.5642 33.8255 48.6937 33.7425 48.8418 33.6621Z" fill="#FDF3CA"/>
<path d="M45.2807 37.1309C45.1196 37.3346 44.9473 37.5479 44.7542 37.7355C44.0636 38.4061 43.366 39.0681 42.6548 39.7384C42.6175 39.59 42.6364 39.5127 42.8038 39.4319C42.987 39.3435 43.1067 39.1057 43.2675 38.9496C43.6023 38.6247 43.9398 38.3024 44.2879 37.995C44.5614 37.7535 44.8467 37.5323 45.0376 37.1952C45.0673 37.1427 45.1837 37.1493 45.2807 37.1309Z" fill="#FDF3CA"/>
<path d="M18.9206 40.346C18.6689 40.3317 18.4102 40.3054 18.1532 40.2659C17.2887 40.1328 16.4248 39.9951 15.5607 39.8589C15.44 39.8399 15.3196 39.8192 15.1855 39.7833C15.3361 39.7461 15.5044 39.6877 15.6634 39.71C16.3965 39.8129 17.1287 39.9278 17.8578 40.0602C18.2137 40.1248 18.5624 40.2372 18.9206 40.346Z" fill="#FDF3C8"/>
<path d="M46.8887 30.3993C47.2496 30.0403 47.6269 29.6797 48.0101 29.3268C48.1395 29.2076 48.2838 29.1077 48.4386 28.9971C48.4314 29.0652 48.423 29.1522 48.3793 29.2018C48.2743 29.3211 48.1347 29.4072 48.0415 29.5351C47.8488 29.7997 47.6168 29.9858 47.3292 30.1102C47.1774 30.1759 47.0473 30.302 46.8887 30.3993Z" fill="#FCF3CC"/>
<path d="M50.0266 32.4736C50.0257 32.5223 50.0171 32.5839 49.9844 32.6152C49.6388 32.9464 49.2895 33.2728 48.9262 33.6085C48.883 33.4637 48.9421 33.3951 49.0653 33.3046C49.3172 33.1196 49.5341 32.8776 49.7681 32.6628C49.8435 32.5935 49.9277 32.5356 50.0266 32.4736Z" fill="#FDF3CA"/>
<path d="M46.0662 36.3682C45.836 36.623 45.586 36.8766 45.3184 37.1321C45.3404 36.881 45.8217 36.3857 46.0662 36.3682Z" fill="#FDF3CA"/>
<path d="M42.5455 39.8291C42.4356 39.9603 42.3081 40.0922 42.1641 40.2268C42.1874 39.9965 42.3205 39.8706 42.5455 39.8291Z" fill="#FDF3C8"/>
<path d="M42.1305 40.2314C42.1398 40.2475 42.1308 40.2619 42.1041 40.2757C42.101 40.2646 42.1096 40.2494 42.1305 40.2314Z" fill="#FDF3C8"/>
<path d="M66.496 32V9.44H70.624V28.512H81.248V32H66.496ZM84.0823 32V15.84H88.0823V32H84.0823ZM83.8583 12.8V8.896H88.3063V12.8H83.8583ZM101.674 32.32C100.309 32.32 99.114 31.9893 98.09 31.328C97.066 30.6453 96.3833 29.728 96.042 28.576H96.394V32H92.426V8.448H96.426V19.136H96.042C96.4047 18.0267 97.098 17.152 98.122 16.512C99.146 15.8507 100.33 15.52 101.674 15.52C103.103 15.52 104.351 15.8613 105.418 16.544C106.485 17.2267 107.317 18.1973 107.914 19.456C108.511 20.6933 108.81 22.1867 108.81 23.936C108.81 25.6853 108.511 27.1893 107.914 28.448C107.317 29.6853 106.474 30.6453 105.386 31.328C104.319 31.9893 103.082 32.32 101.674 32.32ZM100.554 29.248C101.813 29.248 102.826 28.8107 103.594 27.936C104.383 27.0613 104.778 25.728 104.778 23.936C104.778 22.144 104.383 20.8107 103.594 19.936C102.826 19.04 101.813 18.592 100.554 18.592C99.2953 18.592 98.282 19.0293 97.514 19.904C96.746 20.7787 96.362 22.112 96.362 23.904C96.362 25.696 96.746 27.04 97.514 27.936C98.282 28.8107 99.2953 29.248 100.554 29.248ZM121.518 32.32C120.152 32.32 118.958 31.9893 117.934 31.328C116.91 30.6453 116.227 29.728 115.886 28.576H116.238V32H112.27V8.448H116.27V19.136H115.886C116.248 18.0267 116.942 17.152 117.966 16.512C118.99 15.8507 120.174 15.52 121.518 15.52C122.947 15.52 124.195 15.8613 125.262 16.544C126.328 17.2267 127.16 18.1973 127.758 19.456C128.355 20.6933 128.654 22.1867 128.654 23.936C128.654 25.6853 128.355 27.1893 127.758 28.448C127.16 29.6853 126.318 30.6453 125.23 31.328C124.163 31.9893 122.926 32.32 121.518 32.32ZM120.398 29.248C121.656 29.248 122.67 28.8107 123.438 27.936C124.227 27.0613 124.622 25.728 124.622 23.936C124.622 22.144 124.227 20.8107 123.438 19.936C122.67 19.04 121.656 18.592 120.398 18.592C119.139 18.592 118.126 19.0293 117.358 19.904C116.59 20.7787 116.206 22.112 116.206 23.904C116.206 25.696 116.59 27.04 117.358 27.936C118.126 28.8107 119.139 29.248 120.398 29.248ZM132.114 32V8.448H136.114V32H132.114ZM140.457 32V15.84H144.457V32H140.457ZM140.233 12.8V8.896H144.681V12.8H140.233ZM156.097 32.32C154.433 32.32 152.993 31.9787 151.777 31.296C150.561 30.6133 149.612 29.6427 148.929 28.384C148.268 27.1253 147.937 25.632 147.937 23.904C147.937 22.176 148.268 20.6933 148.929 19.456C149.612 18.1973 150.561 17.2267 151.777 16.544C152.993 15.8613 154.433 15.52 156.097 15.52C157.761 15.52 159.201 15.8613 160.417 16.544C161.654 17.2267 162.604 18.1973 163.265 19.456C163.948 20.6933 164.289 22.176 164.289 23.904C164.289 25.632 163.948 27.1253 163.265 28.384C162.604 29.6427 161.654 30.6133 160.417 31.296C159.201 31.9787 157.761 32.32 156.097 32.32ZM156.097 29.248C157.356 29.248 158.358 28.8107 159.105 27.936C159.852 27.04 160.225 25.696 160.225 23.904C160.225 22.112 159.852 20.7787 159.105 19.904C158.358 19.0293 157.356 18.592 156.097 18.592C154.838 18.592 153.836 19.0293 153.089 19.904C152.342 20.7787 151.969 22.112 151.969 23.904C151.969 25.696 152.342 27.04 153.089 27.936C153.836 28.8107 154.838 29.248 156.097 29.248Z" fill="white"/>
<path d="M65.624 44V38.36H66.656V43.128H69.312V44H65.624ZM70.0206 44V39.96H71.0206V44H70.0206ZM69.9646 39.2V38.224H71.0766V39.2H69.9646ZM74.4185 44.08C74.0772 44.08 73.7785 43.9973 73.5225 43.832C73.2665 43.6613 73.0958 43.432 73.0105 43.144H73.0985V44H72.1065V38.112H73.1065V40.784H73.0105C73.1012 40.5067 73.2745 40.288 73.5305 40.128C73.7865 39.9627 74.0825 39.88 74.4185 39.88C74.7758 39.88 75.0878 39.9653 75.3545 40.136C75.6212 40.3067 75.8292 40.5493 75.9785 40.864C76.1278 41.1733 76.2025 41.5467 76.2025 41.984C76.2025 42.4213 76.1278 42.7973 75.9785 43.112C75.8292 43.4213 75.6185 43.6613 75.3465 43.832C75.0798 43.9973 74.7705 44.08 74.4185 44.08ZM74.1385 43.312C74.4532 43.312 74.7065 43.2027 74.8985 42.984C75.0958 42.7653 75.1945 42.432 75.1945 41.984C75.1945 41.536 75.0958 41.2027 74.8985 40.984C74.7065 40.76 74.4532 40.648 74.1385 40.648C73.8238 40.648 73.5705 40.7573 73.3785 40.976C73.1865 41.1947 73.0905 41.528 73.0905 41.976C73.0905 42.424 73.1865 42.76 73.3785 42.984C73.5705 43.2027 73.8238 43.312 74.1385 43.312ZM77.0594 44V40.992C77.0594 40.8213 77.0541 40.648 77.0434 40.472C77.0381 40.296 77.0248 40.1253 77.0034 39.96H77.9714L78.0834 41.064H77.9234C77.9768 40.7973 78.0648 40.576 78.1874 40.4C78.3154 40.224 78.4701 40.0933 78.6514 40.008C78.8328 39.9227 79.0301 39.88 79.2434 39.88C79.3394 39.88 79.4168 39.8853 79.4754 39.896C79.5341 39.9013 79.5928 39.9147 79.6514 39.936L79.6434 40.816C79.5421 40.7733 79.4541 40.7467 79.3794 40.736C79.3101 40.7253 79.2221 40.72 79.1154 40.72C78.8861 40.72 78.6914 40.768 78.5314 40.864C78.3768 40.96 78.2594 41.0933 78.1794 41.264C78.1048 41.4347 78.0674 41.6293 78.0674 41.848V44H77.0594ZM81.729 44.08C81.377 44.08 81.0677 43.9973 80.801 43.832C80.5343 43.6613 80.3263 43.4187 80.177 43.104C80.0277 42.7893 79.953 42.4133 79.953 41.976C79.953 41.5387 80.0277 41.1653 80.177 40.856C80.3263 40.5413 80.5343 40.3013 80.801 40.136C81.0677 39.9653 81.377 39.88 81.729 39.88C82.0703 39.88 82.369 39.9653 82.625 40.136C82.8863 40.3013 83.0597 40.5253 83.145 40.808H83.057L83.145 39.96H84.105C84.089 40.1253 84.073 40.2933 84.057 40.464C84.0463 40.6347 84.041 40.8027 84.041 40.968V44H83.049L83.041 43.168H83.137C83.0517 43.4453 82.8783 43.6667 82.617 43.832C82.3557 43.9973 82.0597 44.08 81.729 44.08ZM82.009 43.312C82.3237 43.312 82.577 43.2027 82.769 42.984C82.961 42.76 83.057 42.424 83.057 41.976C83.057 41.528 82.961 41.1947 82.769 40.976C82.577 40.7573 82.3237 40.648 82.009 40.648C81.6943 40.648 81.441 40.7573 81.249 40.976C81.057 41.1947 80.961 41.528 80.961 41.976C80.961 42.424 81.0543 42.76 81.241 42.984C81.433 43.2027 81.689 43.312 82.009 43.312ZM85.1219 44V40.992C85.1219 40.8213 85.1166 40.648 85.1059 40.472C85.1006 40.296 85.0873 40.1253 85.0659 39.96H86.0339L86.1459 41.064H85.9859C86.0393 40.7973 86.1273 40.576 86.2499 40.4C86.3779 40.224 86.5326 40.0933 86.7139 40.008C86.8953 39.9227 87.0926 39.88 87.3059 39.88C87.4019 39.88 87.4793 39.8853 87.5379 39.896C87.5966 39.9013 87.6553 39.9147 87.7139 39.936L87.7059 40.816C87.6046 40.7733 87.5166 40.7467 87.4419 40.736C87.3726 40.7253 87.2846 40.72 87.1779 40.72C86.9486 40.72 86.7539 40.768 86.5939 40.864C86.4393 40.96 86.3219 41.0933 86.2419 41.264C86.1673 41.4347 86.1299 41.6293 86.1299 41.848V44H85.1219ZM88.4328 45.816L88.2008 45.024C88.4514 44.9707 88.6621 44.9093 88.8328 44.84C89.0034 44.7707 89.1448 44.68 89.2568 44.568C89.3688 44.456 89.4621 44.312 89.5368 44.136L89.7368 43.664L89.7128 44.056L87.9527 39.96H89.0168L90.2808 43.112H90.0488L91.3208 39.96H92.3288L90.4888 44.224C90.3661 44.512 90.2328 44.7493 90.0888 44.936C89.9448 45.128 89.7901 45.28 89.6248 45.392C89.4594 45.5093 89.2781 45.6 89.0808 45.664C88.8834 45.728 88.6674 45.7787 88.4328 45.816ZM95.1398 44V38.36H96.0438L98.1158 43.024H97.8678L99.9398 38.36H100.836V44H99.8998V39.816H100.188L98.2918 44H97.6758L95.7798 39.816H96.0758V44H95.1398ZM103.573 44.08C103.221 44.08 102.911 43.9973 102.645 43.832C102.378 43.6613 102.17 43.4187 102.021 43.104C101.871 42.7893 101.797 42.4133 101.797 41.976C101.797 41.5387 101.871 41.1653 102.021 40.856C102.17 40.5413 102.378 40.3013 102.645 40.136C102.911 39.9653 103.221 39.88 103.573 39.88C103.914 39.88 104.213 39.9653 104.469 40.136C104.73 40.3013 104.903 40.5253 104.989 40.808H104.901L104.989 39.96H105.949C105.933 40.1253 105.917 40.2933 105.901 40.464C105.89 40.6347 105.885 40.8027 105.885 40.968V44H104.893L104.885 43.168H104.981C104.895 43.4453 104.722 43.6667 104.461 43.832C104.199 43.9973 103.903 44.08 103.573 44.08ZM103.853 43.312C104.167 43.312 104.421 43.2027 104.613 42.984C104.805 42.76 104.901 42.424 104.901 41.976C104.901 41.528 104.805 41.1947 104.613 40.976C104.421 40.7573 104.167 40.648 103.853 40.648C103.538 40.648 103.285 40.7573 103.093 40.976C102.901 41.1947 102.805 41.528 102.805 41.976C102.805 42.424 102.898 42.76 103.085 42.984C103.277 43.2027 103.533 43.312 103.853 43.312ZM106.974 44V40.968C106.974 40.8027 106.968 40.6347 106.958 40.464C106.947 40.2933 106.931 40.1253 106.91 39.96H107.878L107.958 40.76H107.862C107.99 40.4773 108.179 40.2613 108.43 40.112C108.68 39.9573 108.971 39.88 109.302 39.88C109.776 39.88 110.134 40.0133 110.374 40.28C110.614 40.5467 110.734 40.9627 110.734 41.528V44H109.734V41.576C109.734 41.2507 109.67 41.0187 109.542 40.88C109.419 40.736 109.232 40.664 108.982 40.664C108.672 40.664 108.427 40.76 108.246 40.952C108.064 41.144 107.974 41.4 107.974 41.72V44H106.974ZM113.354 44.08C113.002 44.08 112.693 43.9973 112.426 43.832C112.159 43.6613 111.951 43.4187 111.802 43.104C111.653 42.7893 111.578 42.4133 111.578 41.976C111.578 41.5387 111.653 41.1653 111.802 40.856C111.951 40.5413 112.159 40.3013 112.426 40.136C112.693 39.9653 113.002 39.88 113.354 39.88C113.695 39.88 113.994 39.9653 114.25 40.136C114.511 40.3013 114.685 40.5253 114.77 40.808H114.682L114.77 39.96H115.73C115.714 40.1253 115.698 40.2933 115.682 40.464C115.671 40.6347 115.666 40.8027 115.666 40.968V44H114.674L114.666 43.168H114.762C114.677 43.4453 114.503 43.6667 114.242 43.832C113.981 43.9973 113.685 44.08 113.354 44.08ZM113.634 43.312C113.949 43.312 114.202 43.2027 114.394 42.984C114.586 42.76 114.682 42.424 114.682 41.976C114.682 41.528 114.586 41.1947 114.394 40.976C114.202 40.7573 113.949 40.648 113.634 40.648C113.319 40.648 113.066 40.7573 112.874 40.976C112.682 41.1947 112.586 41.528 112.586 41.976C112.586 42.424 112.679 42.76 112.866 42.984C113.058 43.2027 113.314 43.312 113.634 43.312ZM118.627 45.792C118.254 45.792 117.915 45.752 117.611 45.672C117.312 45.592 117.046 45.4693 116.811 45.304L117.027 44.584C117.182 44.6853 117.342 44.768 117.507 44.832C117.672 44.896 117.843 44.944 118.019 44.976C118.195 45.008 118.374 45.024 118.555 45.024C118.928 45.024 119.206 44.9307 119.387 44.744C119.574 44.5627 119.667 44.3013 119.667 43.96V42.992H119.747C119.662 43.2693 119.488 43.4907 119.227 43.656C118.971 43.8213 118.675 43.904 118.339 43.904C117.976 43.904 117.659 43.824 117.387 43.664C117.12 43.4987 116.912 43.264 116.763 42.96C116.614 42.656 116.539 42.2987 116.539 41.888C116.539 41.4773 116.614 41.1227 116.763 40.824C116.912 40.52 117.12 40.288 117.387 40.128C117.659 39.9627 117.976 39.88 118.339 39.88C118.68 39.88 118.976 39.9627 119.227 40.128C119.483 40.288 119.654 40.5067 119.739 40.784L119.667 40.736L119.747 39.96H120.715C120.694 40.1253 120.678 40.2933 120.667 40.464C120.656 40.6347 120.651 40.8027 120.651 40.968V43.84C120.651 44.4747 120.478 44.9573 120.131 45.288C119.79 45.624 119.288 45.792 118.627 45.792ZM118.611 43.136C118.931 43.136 119.184 43.0293 119.371 42.816C119.563 42.5973 119.659 42.288 119.659 41.888C119.659 41.488 119.563 41.1813 119.371 40.968C119.184 40.7547 118.931 40.648 118.611 40.648C118.286 40.648 118.027 40.7547 117.835 40.968C117.643 41.1813 117.547 41.488 117.547 41.888C117.547 42.288 117.643 42.5973 117.835 42.816C118.027 43.0293 118.286 43.136 118.611 43.136ZM123.684 44.08C123.006 44.08 122.476 43.8933 122.092 43.52C121.708 43.1467 121.516 42.6347 121.516 41.984C121.516 41.5627 121.598 41.1947 121.764 40.88C121.929 40.5653 122.158 40.32 122.452 40.144C122.75 39.968 123.097 39.88 123.492 39.88C123.881 39.88 124.206 39.9627 124.468 40.128C124.729 40.2933 124.926 40.5253 125.06 40.824C125.198 41.1227 125.268 41.472 125.268 41.872V42.136H122.324V41.608H124.556L124.42 41.72C124.42 41.3467 124.34 41.0613 124.18 40.864C124.025 40.6667 123.798 40.568 123.5 40.568C123.169 40.568 122.913 40.6853 122.732 40.92C122.556 41.1547 122.468 41.4827 122.468 41.904V42.008C122.468 42.4453 122.574 42.7733 122.788 42.992C123.006 43.2053 123.313 43.312 123.708 43.312C123.937 43.312 124.15 43.2827 124.348 43.224C124.55 43.16 124.742 43.0587 124.924 42.92L125.22 43.592C125.028 43.7467 124.798 43.8667 124.532 43.952C124.265 44.0373 123.982 44.08 123.684 44.08ZM126.114 44V40.968C126.114 40.8027 126.109 40.6347 126.098 40.464C126.088 40.2933 126.072 40.1253 126.05 39.96H127.018L127.098 40.76H127.002C127.114 40.4827 127.285 40.2667 127.514 40.112C127.749 39.9573 128.026 39.88 128.346 39.88C128.666 39.88 128.93 39.9573 129.138 40.112C129.352 40.2613 129.501 40.496 129.586 40.816H129.458C129.57 40.528 129.754 40.3013 130.01 40.136C130.266 39.9653 130.56 39.88 130.89 39.88C131.344 39.88 131.682 40.0133 131.906 40.28C132.13 40.5467 132.242 40.9627 132.242 41.528V44H131.242V41.568C131.242 41.248 131.189 41.0187 131.082 40.88C130.976 40.736 130.805 40.664 130.57 40.664C130.293 40.664 130.074 40.7627 129.914 40.96C129.754 41.152 129.674 41.4133 129.674 41.744V44H128.674V41.568C128.674 41.248 128.621 41.0187 128.514 40.88C128.408 40.736 128.237 40.664 128.002 40.664C127.725 40.664 127.506 40.7627 127.346 40.96C127.192 41.152 127.114 41.4133 127.114 41.744V44H126.114ZM135.262 44.08C134.584 44.08 134.054 43.8933 133.67 43.52C133.286 43.1467 133.094 42.6347 133.094 41.984C133.094 41.5627 133.176 41.1947 133.342 40.88C133.507 40.5653 133.736 40.32 134.03 40.144C134.328 39.968 134.675 39.88 135.07 39.88C135.459 39.88 135.784 39.9627 136.046 40.128C136.307 40.2933 136.504 40.5253 136.638 40.824C136.776 41.1227 136.846 41.472 136.846 41.872V42.136H133.902V41.608H136.134L135.998 41.72C135.998 41.3467 135.918 41.0613 135.758 40.864C135.603 40.6667 135.376 40.568 135.078 40.568C134.747 40.568 134.491 40.6853 134.31 40.92C134.134 41.1547 134.046 41.4827 134.046 41.904V42.008C134.046 42.4453 134.152 42.7733 134.366 42.992C134.584 43.2053 134.891 43.312 135.286 43.312C135.515 43.312 135.728 43.2827 135.926 43.224C136.128 43.16 136.32 43.0587 136.502 42.92L136.798 43.592C136.606 43.7467 136.376 43.8667 136.11 43.952C135.843 44.0373 135.56 44.08 135.262 44.08ZM137.692 44V40.968C137.692 40.8027 137.687 40.6347 137.676 40.464C137.666 40.2933 137.65 40.1253 137.628 39.96H138.596L138.676 40.76H138.58C138.708 40.4773 138.898 40.2613 139.148 40.112C139.399 39.9573 139.69 39.88 140.02 39.88C140.495 39.88 140.852 40.0133 141.092 40.28C141.332 40.5467 141.452 40.9627 141.452 41.528V44H140.452V41.576C140.452 41.2507 140.388 41.0187 140.26 40.88C140.138 40.736 139.951 40.664 139.7 40.664C139.391 40.664 139.146 40.76 138.964 40.952C138.783 41.144 138.692 41.4 138.692 41.72V44H137.692ZM144.241 44.08C143.761 44.08 143.398 43.9547 143.153 43.704C142.907 43.4533 142.785 43.0773 142.785 42.576V40.712H142.009V39.96H142.785V38.928L143.785 38.672V39.96H144.865V40.712H143.785V42.512C143.785 42.7893 143.838 42.984 143.945 43.096C144.051 43.208 144.198 43.264 144.385 43.264C144.486 43.264 144.571 43.256 144.641 43.24C144.715 43.224 144.787 43.2027 144.857 43.176V43.968C144.766 44.0053 144.665 44.032 144.553 44.048C144.446 44.0693 144.342 44.08 144.241 44.08ZM149.787 44.08C149.334 44.08 148.915 44.024 148.531 43.912C148.153 43.7947 147.827 43.6347 147.555 43.432L147.875 42.624C148.057 42.752 148.246 42.8613 148.443 42.952C148.641 43.0373 148.851 43.104 149.075 43.152C149.299 43.1947 149.537 43.216 149.787 43.216C150.209 43.216 150.513 43.1467 150.699 43.008C150.886 42.8693 150.979 42.688 150.979 42.464C150.979 42.2667 150.915 42.1173 150.787 42.016C150.659 41.9093 150.43 41.8213 150.099 41.752L149.195 41.568C148.678 41.4613 148.291 41.2827 148.035 41.032C147.779 40.7813 147.651 40.4453 147.651 40.024C147.651 39.672 147.745 39.3653 147.931 39.104C148.118 38.8427 148.379 38.64 148.715 38.496C149.051 38.352 149.443 38.28 149.891 38.28C150.291 38.28 150.662 38.3387 151.003 38.456C151.345 38.568 151.63 38.7307 151.859 38.944L151.539 39.712C151.31 39.52 151.059 39.3787 150.787 39.288C150.515 39.192 150.211 39.144 149.875 39.144C149.497 39.144 149.201 39.2187 148.987 39.368C148.779 39.512 148.675 39.712 148.675 39.968C148.675 40.1653 148.739 40.3227 148.867 40.44C149.001 40.5573 149.225 40.648 149.539 40.712L150.435 40.888C150.969 40.9947 151.363 41.1707 151.619 41.416C151.875 41.656 152.003 41.9813 152.003 42.392C152.003 42.728 151.913 43.024 151.731 43.28C151.55 43.5307 151.294 43.728 150.963 43.872C150.633 44.0107 150.241 44.08 149.787 44.08ZM152.753 45.816L152.521 45.024C152.772 44.9707 152.982 44.9093 153.153 44.84C153.324 44.7707 153.465 44.68 153.577 44.568C153.689 44.456 153.782 44.312 153.857 44.136L154.057 43.664L154.033 44.056L152.273 39.96H153.337L154.601 43.112H154.369L155.641 39.96H156.649L154.809 44.224C154.686 44.512 154.553 44.7493 154.409 44.936C154.265 45.128 154.11 45.28 153.945 45.392C153.78 45.5093 153.598 45.6 153.401 45.664C153.204 45.728 152.988 45.7787 152.753 45.816ZM158.539 44.08C158.192 44.08 157.872 44.04 157.579 43.96C157.291 43.8747 157.048 43.7573 156.851 43.608L157.131 42.936C157.333 43.0747 157.557 43.1813 157.803 43.256C158.048 43.3307 158.296 43.368 158.547 43.368C158.813 43.368 159.011 43.3227 159.139 43.232C159.272 43.1413 159.339 43.0187 159.339 42.864C159.339 42.7413 159.296 42.6453 159.211 42.576C159.131 42.5013 159 42.4453 158.819 42.408L158.019 42.256C157.677 42.1813 157.416 42.0533 157.235 41.872C157.059 41.6907 156.971 41.4533 156.971 41.16C156.971 40.9093 157.037 40.688 157.171 40.496C157.309 40.304 157.504 40.1547 157.755 40.048C158.011 39.936 158.309 39.88 158.651 39.88C158.949 39.88 159.229 39.92 159.491 40C159.757 40.08 159.981 40.2 160.163 40.36L159.875 41.008C159.709 40.8747 159.52 40.7707 159.307 40.696C159.093 40.6213 158.885 40.584 158.683 40.584C158.405 40.584 158.203 40.6347 158.075 40.736C157.947 40.832 157.883 40.9573 157.883 41.112C157.883 41.2293 157.92 41.328 157.995 41.408C158.075 41.4827 158.197 41.5387 158.363 41.576L159.163 41.728C159.52 41.7973 159.789 41.92 159.971 42.096C160.157 42.2667 160.251 42.5013 160.251 42.8C160.251 43.0667 160.179 43.296 160.035 43.488C159.891 43.68 159.691 43.8267 159.435 43.928C159.179 44.0293 158.88 44.08 158.539 44.08ZM162.795 44.08C162.315 44.08 161.953 43.9547 161.707 43.704C161.462 43.4533 161.339 43.0773 161.339 42.576V40.712H160.563V39.96H161.339V38.928L162.339 38.672V39.96H163.419V40.712H162.339V42.512C162.339 42.7893 162.393 42.984 162.499 43.096C162.606 43.208 162.753 43.264 162.939 43.264C163.041 43.264 163.126 43.256 163.195 43.24C163.27 43.224 163.342 43.2027 163.411 43.176V43.968C163.321 44.0053 163.219 44.032 163.107 44.048C163.001 44.0693 162.897 44.08 162.795 44.08ZM166.012 44.08C165.334 44.08 164.804 43.8933 164.42 43.52C164.036 43.1467 163.844 42.6347 163.844 41.984C163.844 41.5627 163.926 41.1947 164.092 40.88C164.257 40.5653 164.486 40.32 164.78 40.144C165.078 39.968 165.425 39.88 165.82 39.88C166.209 39.88 166.534 39.9627 166.796 40.128C167.057 40.2933 167.254 40.5253 167.388 40.824C167.526 41.1227 167.596 41.472 167.596 41.872V42.136H164.652V41.608H166.884L166.748 41.72C166.748 41.3467 166.668 41.0613 166.508 40.864C166.353 40.6667 166.126 40.568 165.828 40.568C165.497 40.568 165.241 40.6853 165.06 40.92C164.884 41.1547 164.796 41.4827 164.796 41.904V42.008C164.796 42.4453 164.902 42.7733 165.116 42.992C165.334 43.2053 165.641 43.312 166.036 43.312C166.265 43.312 166.478 43.2827 166.676 43.224C166.878 43.16 167.07 43.0587 167.252 42.92L167.548 43.592C167.356 43.7467 167.126 43.8667 166.86 43.952C166.593 44.0373 166.31 44.08 166.012 44.08ZM168.442 44V40.968C168.442 40.8027 168.437 40.6347 168.426 40.464C168.416 40.2933 168.4 40.1253 168.378 39.96H169.346L169.426 40.76H169.33C169.442 40.4827 169.613 40.2667 169.842 40.112C170.077 39.9573 170.354 39.88 170.674 39.88C170.994 39.88 171.258 39.9573 171.466 40.112C171.68 40.2613 171.829 40.496 171.914 40.816H171.786C171.898 40.528 172.082 40.3013 172.338 40.136C172.594 39.9653 172.888 39.88 173.218 39.88C173.672 39.88 174.01 40.0133 174.234 40.28C174.458 40.5467 174.57 40.9627 174.57 41.528V44H173.57V41.568C173.57 41.248 173.517 41.0187 173.41 40.88C173.304 40.736 173.133 40.664 172.898 40.664C172.621 40.664 172.402 40.7627 172.242 40.96C172.082 41.152 172.002 41.4133 172.002 41.744V44H171.002V41.568C171.002 41.248 170.949 41.0187 170.842 40.88C170.736 40.736 170.565 40.664 170.33 40.664C170.053 40.664 169.834 40.7627 169.674 40.96C169.52 41.152 169.442 41.4133 169.442 41.744V44H168.442Z" fill="white"/>
<path d="M65.624 44V38.36H66.656V43.128H69.312V44H65.624ZM70.0206 44V39.96H71.0206V44H70.0206ZM69.9646 39.2V38.224H71.0766V39.2H69.9646ZM74.4185 44.08C74.0772 44.08 73.7785 43.9973 73.5225 43.832C73.2665 43.6613 73.0958 43.432 73.0105 43.144H73.0985V44H72.1065V38.112H73.1065V40.784H73.0105C73.1012 40.5067 73.2745 40.288 73.5305 40.128C73.7865 39.9627 74.0825 39.88 74.4185 39.88C74.7758 39.88 75.0878 39.9653 75.3545 40.136C75.6212 40.3067 75.8292 40.5493 75.9785 40.864C76.1278 41.1733 76.2025 41.5467 76.2025 41.984C76.2025 42.4213 76.1278 42.7973 75.9785 43.112C75.8292 43.4213 75.6185 43.6613 75.3465 43.832C75.0798 43.9973 74.7705 44.08 74.4185 44.08ZM74.1385 43.312C74.4532 43.312 74.7065 43.2027 74.8985 42.984C75.0958 42.7653 75.1945 42.432 75.1945 41.984C75.1945 41.536 75.0958 41.2027 74.8985 40.984C74.7065 40.76 74.4532 40.648 74.1385 40.648C73.8238 40.648 73.5705 40.7573 73.3785 40.976C73.1865 41.1947 73.0905 41.528 73.0905 41.976C73.0905 42.424 73.1865 42.76 73.3785 42.984C73.5705 43.2027 73.8238 43.312 74.1385 43.312ZM77.0594 44V40.992C77.0594 40.8213 77.0541 40.648 77.0434 40.472C77.0381 40.296 77.0248 40.1253 77.0034 39.96H77.9714L78.0834 41.064H77.9234C77.9768 40.7973 78.0648 40.576 78.1874 40.4C78.3154 40.224 78.4701 40.0933 78.6514 40.008C78.8328 39.9227 79.0301 39.88 79.2434 39.88C79.3394 39.88 79.4168 39.8853 79.4754 39.896C79.5341 39.9013 79.5928 39.9147 79.6514 39.936L79.6434 40.816C79.5421 40.7733 79.4541 40.7467 79.3794 40.736C79.3101 40.7253 79.2221 40.72 79.1154 40.72C78.8861 40.72 78.6914 40.768 78.5314 40.864C78.3768 40.96 78.2594 41.0933 78.1794 41.264C78.1048 41.4347 78.0674 41.6293 78.0674 41.848V44H77.0594ZM81.729 44.08C81.377 44.08 81.0677 43.9973 80.801 43.832C80.5343 43.6613 80.3263 43.4187 80.177 43.104C80.0277 42.7893 79.953 42.4133 79.953 41.976C79.953 41.5387 80.0277 41.1653 80.177 40.856C80.3263 40.5413 80.5343 40.3013 80.801 40.136C81.0677 39.9653 81.377 39.88 81.729 39.88C82.0703 39.88 82.369 39.9653 82.625 40.136C82.8863 40.3013 83.0597 40.5253 83.145 40.808H83.057L83.145 39.96H84.105C84.089 40.1253 84.073 40.2933 84.057 40.464C84.0463 40.6347 84.041 40.8027 84.041 40.968V44H83.049L83.041 43.168H83.137C83.0517 43.4453 82.8783 43.6667 82.617 43.832C82.3557 43.9973 82.0597 44.08 81.729 44.08ZM82.009 43.312C82.3237 43.312 82.577 43.2027 82.769 42.984C82.961 42.76 83.057 42.424 83.057 41.976C83.057 41.528 82.961 41.1947 82.769 40.976C82.577 40.7573 82.3237 40.648 82.009 40.648C81.6943 40.648 81.441 40.7573 81.249 40.976C81.057 41.1947 80.961 41.528 80.961 41.976C80.961 42.424 81.0543 42.76 81.241 42.984C81.433 43.2027 81.689 43.312 82.009 43.312ZM85.1219 44V40.992C85.1219 40.8213 85.1166 40.648 85.1059 40.472C85.1006 40.296 85.0873 40.1253 85.0659 39.96H86.0339L86.1459 41.064H85.9859C86.0393 40.7973 86.1273 40.576 86.2499 40.4C86.3779 40.224 86.5326 40.0933 86.7139 40.008C86.8953 39.9227 87.0926 39.88 87.3059 39.88C87.4019 39.88 87.4793 39.8853 87.5379 39.896C87.5966 39.9013 87.6553 39.9147 87.7139 39.936L87.7059 40.816C87.6046 40.7733 87.5166 40.7467 87.4419 40.736C87.3726 40.7253 87.2846 40.72 87.1779 40.72C86.9486 40.72 86.7539 40.768 86.5939 40.864C86.4393 40.96 86.3219 41.0933 86.2419 41.264C86.1673 41.4347 86.1299 41.6293 86.1299 41.848V44H85.1219ZM88.4328 45.816L88.2008 45.024C88.4514 44.9707 88.6621 44.9093 88.8328 44.84C89.0034 44.7707 89.1448 44.68 89.2568 44.568C89.3688 44.456 89.4621 44.312 89.5368 44.136L89.7368 43.664L89.7128 44.056L87.9527 39.96H89.0168L90.2808 43.112H90.0488L91.3208 39.96H92.3288L90.4888 44.224C90.3661 44.512 90.2328 44.7493 90.0888 44.936C89.9448 45.128 89.7901 45.28 89.6248 45.392C89.4594 45.5093 89.2781 45.6 89.0808 45.664C88.8834 45.728 88.6674 45.7787 88.4328 45.816ZM95.1398 44V38.36H96.0438L98.1158 43.024H97.8678L99.9398 38.36H100.836V44H99.8998V39.816H100.188L98.2918 44H97.6758L95.7798 39.816H96.0758V44H95.1398ZM103.573 44.08C103.221 44.08 102.911 43.9973 102.645 43.832C102.378 43.6613 102.17 43.4187 102.021 43.104C101.871 42.7893 101.797 42.4133 101.797 41.976C101.797 41.5387 101.871 41.1653 102.021 40.856C102.17 40.5413 102.378 40.3013 102.645 40.136C102.911 39.9653 103.221 39.88 103.573 39.88C103.914 39.88 104.213 39.9653 104.469 40.136C104.73 40.3013 104.903 40.5253 104.989 40.808H104.901L104.989 39.96H105.949C105.933 40.1253 105.917 40.2933 105.901 40.464C105.89 40.6347 105.885 40.8027 105.885 40.968V44H104.893L104.885 43.168H104.981C104.895 43.4453 104.722 43.6667 104.461 43.832C104.199 43.9973 103.903 44.08 103.573 44.08ZM103.853 43.312C104.167 43.312 104.421 43.2027 104.613 42.984C104.805 42.76 104.901 42.424 104.901 41.976C104.901 41.528 104.805 41.1947 104.613 40.976C104.421 40.7573 104.167 40.648 103.853 40.648C103.538 40.648 103.285 40.7573 103.093 40.976C102.901 41.1947 102.805 41.528 102.805 41.976C102.805 42.424 102.898 42.76 103.085 42.984C103.277 43.2027 103.533 43.312 103.853 43.312ZM106.974 44V40.968C106.974 40.8027 106.968 40.6347 106.958 40.464C106.947 40.2933 106.931 40.1253 106.91 39.96H107.878L107.958 40.76H107.862C107.99 40.4773 108.179 40.2613 108.43 40.112C108.68 39.9573 108.971 39.88 109.302 39.88C109.776 39.88 110.134 40.0133 110.374 40.28C110.614 40.5467 110.734 40.9627 110.734 41.528V44H109.734V41.576C109.734 41.2507 109.67 41.0187 109.542 40.88C109.419 40.736 109.232 40.664 108.982 40.664C108.672 40.664 108.427 40.76 108.246 40.952C108.064 41.144 107.974 41.4 107.974 41.72V44H106.974ZM113.354 44.08C113.002 44.08 112.693 43.9973 112.426 43.832C112.159 43.6613 111.951 43.4187 111.802 43.104C111.653 42.7893 111.578 42.4133 111.578 41.976C111.578 41.5387 111.653 41.1653 111.802 40.856C111.951 40.5413 112.159 40.3013 112.426 40.136C112.693 39.9653 113.002 39.88 113.354 39.88C113.695 39.88 113.994 39.9653 114.25 40.136C114.511 40.3013 114.685 40.5253 114.77 40.808H114.682L114.77 39.96H115.73C115.714 40.1253 115.698 40.2933 115.682 40.464C115.671 40.6347 115.666 40.8027 115.666 40.968V44H114.674L114.666 43.168H114.762C114.677 43.4453 114.503 43.6667 114.242 43.832C113.981 43.9973 113.685 44.08 113.354 44.08ZM113.634 43.312C113.949 43.312 114.202 43.2027 114.394 42.984C114.586 42.76 114.682 42.424 114.682 41.976C114.682 41.528 114.586 41.1947 114.394 40.976C114.202 40.7573 113.949 40.648 113.634 40.648C113.319 40.648 113.066 40.7573 112.874 40.976C112.682 41.1947 112.586 41.528 112.586 41.976C112.586 42.424 112.679 42.76 112.866 42.984C113.058 43.2027 113.314 43.312 113.634 43.312ZM118.627 45.792C118.254 45.792 117.915 45.752 117.611 45.672C117.312 45.592 117.046 45.4693 116.811 45.304L117.027 44.584C117.182 44.6853 117.342 44.768 117.507 44.832C117.672 44.896 117.843 44.944 118.019 44.976C118.195 45.008 118.374 45.024 118.555 45.024C118.928 45.024 119.206 44.9307 119.387 44.744C119.574 44.5627 119.667 44.3013 119.667 43.96V42.992H119.747C119.662 43.2693 119.488 43.4907 119.227 43.656C118.971 43.8213 118.675 43.904 118.339 43.904C117.976 43.904 117.659 43.824 117.387 43.664C117.12 43.4987 116.912 43.264 116.763 42.96C116.614 42.656 116.539 42.2987 116.539 41.888C116.539 41.4773 116.614 41.1227 116.763 40.824C116.912 40.52 117.12 40.288 117.387 40.128C117.659 39.9627 117.976 39.88 118.339 39.88C118.68 39.88 118.976 39.9627 119.227 40.128C119.483 40.288 119.654 40.5067 119.739 40.784L119.667 40.736L119.747 39.96H120.715C120.694 40.1253 120.678 40.2933 120.667 40.464C120.656 40.6347 120.651 40.8027 120.651 40.968V43.84C120.651 44.4747 120.478 44.9573 120.131 45.288C119.79 45.624 119.288 45.792 118.627 45.792ZM118.611 43.136C118.931 43.136 119.184 43.0293 119.371 42.816C119.563 42.5973 119.659 42.288 119.659 41.888C119.659 41.488 119.563 41.1813 119.371 40.968C119.184 40.7547 118.931 40.648 118.611 40.648C118.286 40.648 118.027 40.7547 117.835 40.968C117.643 41.1813 117.547 41.488 117.547 41.888C117.547 42.288 117.643 42.5973 117.835 42.816C118.027 43.0293 118.286 43.136 118.611 43.136ZM123.684 44.08C123.006 44.08 122.476 43.8933 122.092 43.52C121.708 43.1467 121.516 42.6347 121.516 41.984C121.516 41.5627 121.598 41.1947 121.764 40.88C121.929 40.5653 122.158 40.32 122.452 40.144C122.75 39.968 123.097 39.88 123.492 39.88C123.881 39.88 124.206 39.9627 124.468 40.128C124.729 40.2933 124.926 40.5253 125.06 40.824C125.198 41.1227 125.268 41.472 125.268 41.872V42.136H122.324V41.608H124.556L124.42 41.72C124.42 41.3467 124.34 41.0613 124.18 40.864C124.025 40.6667 123.798 40.568 123.5 40.568C123.169 40.568 122.913 40.6853 122.732 40.92C122.556 41.1547 122.468 41.4827 122.468 41.904V42.008C122.468 42.4453 122.574 42.7733 122.788 42.992C123.006 43.2053 123.313 43.312 123.708 43.312C123.937 43.312 124.15 43.2827 124.348 43.224C124.55 43.16 124.742 43.0587 124.924 42.92L125.22 43.592C125.028 43.7467 124.798 43.8667 124.532 43.952C124.265 44.0373 123.982 44.08 123.684 44.08ZM126.114 44V40.968C126.114 40.8027 126.109 40.6347 126.098 40.464C126.088 40.2933 126.072 40.1253 126.05 39.96H127.018L127.098 40.76H127.002C127.114 40.4827 127.285 40.2667 127.514 40.112C127.749 39.9573 128.026 39.88 128.346 39.88C128.666 39.88 128.93 39.9573 129.138 40.112C129.352 40.2613 129.501 40.496 129.586 40.816H129.458C129.57 40.528 129.754 40.3013 130.01 40.136C130.266 39.9653 130.56 39.88 130.89 39.88C131.344 39.88 131.682 40.0133 131.906 40.28C132.13 40.5467 132.242 40.9627 132.242 41.528V44H131.242V41.568C131.242 41.248 131.189 41.0187 131.082 40.88C130.976 40.736 130.805 40.664 130.57 40.664C130.293 40.664 130.074 40.7627 129.914 40.96C129.754 41.152 129.674 41.4133 129.674 41.744V44H128.674V41.568C128.674 41.248 128.621 41.0187 128.514 40.88C128.408 40.736 128.237 40.664 128.002 40.664C127.725 40.664 127.506 40.7627 127.346 40.96C127.192 41.152 127.114 41.4133 127.114 41.744V44H126.114ZM135.262 44.08C134.584 44.08 134.054 43.8933 133.67 43.52C133.286 43.1467 133.094 42.6347 133.094 41.984C133.094 41.5627 133.176 41.1947 133.342 40.88C133.507 40.5653 133.736 40.32 134.03 40.144C134.328 39.968 134.675 39.88 135.07 39.88C135.459 39.88 135.784 39.9627 136.046 40.128C136.307 40.2933 136.504 40.5253 136.638 40.824C136.776 41.1227 136.846 41.472 136.846 41.872V42.136H133.902V41.608H136.134L135.998 41.72C135.998 41.3467 135.918 41.0613 135.758 40.864C135.603 40.6667 135.376 40.568 135.078 40.568C134.747 40.568 134.491 40.6853 134.31 40.92C134.134 41.1547 134.046 41.4827 134.046 41.904V42.008C134.046 42.4453 134.152 42.7733 134.366 42.992C134.584 43.2053 134.891 43.312 135.286 43.312C135.515 43.312 135.728 43.2827 135.926 43.224C136.128 43.16 136.32 43.0587 136.502 42.92L136.798 43.592C136.606 43.7467 136.376 43.8667 136.11 43.952C135.843 44.0373 135.56 44.08 135.262 44.08ZM137.692 44V40.968C137.692 40.8027 137.687 40.6347 137.676 40.464C137.666 40.2933 137.65 40.1253 137.628 39.96H138.596L138.676 40.76H138.58C138.708 40.4773 138.898 40.2613 139.148 40.112C139.399 39.9573 139.69 39.88 140.02 39.88C140.495 39.88 140.852 40.0133 141.092 40.28C141.332 40.5467 141.452 40.9627 141.452 41.528V44H140.452V41.576C140.452 41.2507 140.388 41.0187 140.26 40.88C140.138 40.736 139.951 40.664 139.7 40.664C139.391 40.664 139.146 40.76 138.964 40.952C138.783 41.144 138.692 41.4 138.692 41.72V44H137.692ZM144.241 44.08C143.761 44.08 143.398 43.9547 143.153 43.704C142.907 43.4533 142.785 43.0773 142.785 42.576V40.712H142.009V39.96H142.785V38.928L143.785 38.672V39.96H144.865V40.712H143.785V42.512C143.785 42.7893 143.838 42.984 143.945 43.096C144.051 43.208 144.198 43.264 144.385 43.264C144.486 43.264 144.571 43.256 144.641 43.24C144.715 43.224 144.787 43.2027 144.857 43.176V43.968C144.766 44.0053 144.665 44.032 144.553 44.048C144.446 44.0693 144.342 44.08 144.241 44.08ZM149.787 44.08C149.334 44.08 148.915 44.024 148.531 43.912C148.153 43.7947 147.827 43.6347 147.555 43.432L147.875 42.624C148.057 42.752 148.246 42.8613 148.443 42.952C148.641 43.0373 148.851 43.104 149.075 43.152C149.299 43.1947 149.537 43.216 149.787 43.216C150.209 43.216 150.513 43.1467 150.699 43.008C150.886 42.8693 150.979 42.688 150.979 42.464C150.979 42.2667 150.915 42.1173 150.787 42.016C150.659 41.9093 150.43 41.8213 150.099 41.752L149.195 41.568C148.678 41.4613 148.291 41.2827 148.035 41.032C147.779 40.7813 147.651 40.4453 147.651 40.024C147.651 39.672 147.745 39.3653 147.931 39.104C148.118 38.8427 148.379 38.64 148.715 38.496C149.051 38.352 149.443 38.28 149.891 38.28C150.291 38.28 150.662 38.3387 151.003 38.456C151.345 38.568 151.63 38.7307 151.859 38.944L151.539 39.712C151.31 39.52 151.059 39.3787 150.787 39.288C150.515 39.192 150.211 39.144 149.875 39.144C149.497 39.144 149.201 39.2187 148.987 39.368C148.779 39.512 148.675 39.712 148.675 39.968C148.675 40.1653 148.739 40.3227 148.867 40.44C149.001 40.5573 149.225 40.648 149.539 40.712L150.435 40.888C150.969 40.9947 151.363 41.1707 151.619 41.416C151.875 41.656 152.003 41.9813 152.003 42.392C152.003 42.728 151.913 43.024 151.731 43.28C151.55 43.5307 151.294 43.728 150.963 43.872C150.633 44.0107 150.241 44.08 149.787 44.08ZM152.753 45.816L152.521 45.024C152.772 44.9707 152.982 44.9093 153.153 44.84C153.324 44.7707 153.465 44.68 153.577 44.568C153.689 44.456 153.782 44.312 153.857 44.136L154.057 43.664L154.033 44.056L152.273 39.96H153.337L154.601 43.112H154.369L155.641 39.96H156.649L154.809 44.224C154.686 44.512 154.553 44.7493 154.409 44.936C154.265 45.128 154.11 45.28 153.945 45.392C153.78 45.5093 153.598 45.6 153.401 45.664C153.204 45.728 152.988 45.7787 152.753 45.816ZM158.539 44.08C158.192 44.08 157.872 44.04 157.579 43.96C157.291 43.8747 157.048 43.7573 156.851 43.608L157.131 42.936C157.333 43.0747 157.557 43.1813 157.803 43.256C158.048 43.3307 158.296 43.368 158.547 43.368C158.813 43.368 159.011 43.3227 159.139 43.232C159.272 43.1413 159.339 43.0187 159.339 42.864C159.339 42.7413 159.296 42.6453 159.211 42.576C159.131 42.5013 159 42.4453 158.819 42.408L158.019 42.256C157.677 42.1813 157.416 42.0533 157.235 41.872C157.059 41.6907 156.971 41.4533 156.971 41.16C156.971 40.9093 157.037 40.688 157.171 40.496C157.309 40.304 157.504 40.1547 157.755 40.048C158.011 39.936 158.309 39.88 158.651 39.88C158.949 39.88 159.229 39.92 159.491 40C159.757 40.08 159.981 40.2 160.163 40.36L159.875 41.008C159.709 40.8747 159.52 40.7707 159.307 40.696C159.093 40.6213 158.885 40.584 158.683 40.584C158.405 40.584 158.203 40.6347 158.075 40.736C157.947 40.832 157.883 40.9573 157.883 41.112C157.883 41.2293 157.92 41.328 157.995 41.408C158.075 41.4827 158.197 41.5387 158.363 41.576L159.163 41.728C159.52 41.7973 159.789 41.92 159.971 42.096C160.157 42.2667 160.251 42.5013 160.251 42.8C160.251 43.0667 160.179 43.296 160.035 43.488C159.891 43.68 159.691 43.8267 159.435 43.928C159.179 44.0293 158.88 44.08 158.539 44.08ZM162.795 44.08C162.315 44.08 161.953 43.9547 161.707 43.704C161.462 43.4533 161.339 43.0773 161.339 42.576V40.712H160.563V39.96H161.339V38.928L162.339 38.672V39.96H163.419V40.712H162.339V42.512C162.339 42.7893 162.393 42.984 162.499 43.096C162.606 43.208 162.753 43.264 162.939 43.264C163.041 43.264 163.126 43.256 163.195 43.24C163.27 43.224 163.342 43.2027 163.411 43.176V43.968C163.321 44.0053 163.219 44.032 163.107 44.048C163.001 44.0693 162.897 44.08 162.795 44.08ZM166.012 44.08C165.334 44.08 164.804 43.8933 164.42 43.52C164.036 43.1467 163.844 42.6347 163.844 41.984C163.844 41.5627 163.926 41.1947 164.092 40.88C164.257 40.5653 164.486 40.32 164.78 40.144C165.078 39.968 165.425 39.88 165.82 39.88C166.209 39.88 166.534 39.9627 166.796 40.128C167.057 40.2933 167.254 40.5253 167.388 40.824C167.526 41.1227 167.596 41.472 167.596 41.872V42.136H164.652V41.608H166.884L166.748 41.72C166.748 41.3467 166.668 41.0613 166.508 40.864C166.353 40.6667 166.126 40.568 165.828 40.568C165.497 40.568 165.241 40.6853 165.06 40.92C164.884 41.1547 164.796 41.4827 164.796 41.904V42.008C164.796 42.4453 164.902 42.7733 165.116 42.992C165.334 43.2053 165.641 43.312 166.036 43.312C166.265 43.312 166.478 43.2827 166.676 43.224C166.878 43.16 167.07 43.0587 167.252 42.92L167.548 43.592C167.356 43.7467 167.126 43.8667 166.86 43.952C166.593 44.0373 166.31 44.08 166.012 44.08ZM168.442 44V40.968C168.442 40.8027 168.437 40.6347 168.426 40.464C168.416 40.2933 168.4 40.1253 168.378 39.96H169.346L169.426 40.76H169.33C169.442 40.4827 169.613 40.2667 169.842 40.112C170.077 39.9573 170.354 39.88 170.674 39.88C170.994 39.88 171.258 39.9573 171.466 40.112C171.68 40.2613 171.829 40.496 171.914 40.816H171.786C171.898 40.528 172.082 40.3013 172.338 40.136C172.594 39.9653 172.888 39.88 173.218 39.88C173.672 39.88 174.01 40.0133 174.234 40.28C174.458 40.5467 174.57 40.9627 174.57 41.528V44H173.57V41.568C173.57 41.248 173.517 41.0187 173.41 40.88C173.304 40.736 173.133 40.664 172.898 40.664C172.621 40.664 172.402 40.7627 172.242 40.96C172.082 41.152 172.002 41.4133 172.002 41.744V44H171.002V41.568C171.002 41.248 170.949 41.0187 170.842 40.88C170.736 40.736 170.565 40.664 170.33 40.664C170.053 40.664 169.834 40.7627 169.674 40.96C169.52 41.152 169.442 41.4133 169.442 41.744V44H168.442Z" fill="black" fill-opacity="0.2"/>
<path d="M65.624 44V38.36H66.656V43.128H69.312V44H65.624ZM70.0206 44V39.96H71.0206V44H70.0206ZM69.9646 39.2V38.224H71.0766V39.2H69.9646ZM74.4185 44.08C74.0772 44.08 73.7785 43.9973 73.5225 43.832C73.2665 43.6613 73.0958 43.432 73.0105 43.144H73.0985V44H72.1065V38.112H73.1065V40.784H73.0105C73.1012 40.5067 73.2745 40.288 73.5305 40.128C73.7865 39.9627 74.0825 39.88 74.4185 39.88C74.7758 39.88 75.0878 39.9653 75.3545 40.136C75.6212 40.3067 75.8292 40.5493 75.9785 40.864C76.1278 41.1733 76.2025 41.5467 76.2025 41.984C76.2025 42.4213 76.1278 42.7973 75.9785 43.112C75.8292 43.4213 75.6185 43.6613 75.3465 43.832C75.0798 43.9973 74.7705 44.08 74.4185 44.08ZM74.1385 43.312C74.4532 43.312 74.7065 43.2027 74.8985 42.984C75.0958 42.7653 75.1945 42.432 75.1945 41.984C75.1945 41.536 75.0958 41.2027 74.8985 40.984C74.7065 40.76 74.4532 40.648 74.1385 40.648C73.8238 40.648 73.5705 40.7573 73.3785 40.976C73.1865 41.1947 73.0905 41.528 73.0905 41.976C73.0905 42.424 73.1865 42.76 73.3785 42.984C73.5705 43.2027 73.8238 43.312 74.1385 43.312ZM77.0594 44V40.992C77.0594 40.8213 77.0541 40.648 77.0434 40.472C77.0381 40.296 77.0248 40.1253 77.0034 39.96H77.9714L78.0834 41.064H77.9234C77.9768 40.7973 78.0648 40.576 78.1874 40.4C78.3154 40.224 78.4701 40.0933 78.6514 40.008C78.8328 39.9227 79.0301 39.88 79.2434 39.88C79.3394 39.88 79.4168 39.8853 79.4754 39.896C79.5341 39.9013 79.5928 39.9147 79.6514 39.936L79.6434 40.816C79.5421 40.7733 79.4541 40.7467 79.3794 40.736C79.3101 40.7253 79.2221 40.72 79.1154 40.72C78.8861 40.72 78.6914 40.768 78.5314 40.864C78.3768 40.96 78.2594 41.0933 78.1794 41.264C78.1048 41.4347 78.0674 41.6293 78.0674 41.848V44H77.0594ZM81.729 44.08C81.377 44.08 81.0677 43.9973 80.801 43.832C80.5343 43.6613 80.3263 43.4187 80.177 43.104C80.0277 42.7893 79.953 42.4133 79.953 41.976C79.953 41.5387 80.0277 41.1653 80.177 40.856C80.3263 40.5413 80.5343 40.3013 80.801 40.136C81.0677 39.9653 81.377 39.88 81.729 39.88C82.0703 39.88 82.369 39.9653 82.625 40.136C82.8863 40.3013 83.0597 40.5253 83.145 40.808H83.057L83.145 39.96H84.105C84.089 40.1253 84.073 40.2933 84.057 40.464C84.0463 40.6347 84.041 40.8027 84.041 40.968V44H83.049L83.041 43.168H83.137C83.0517 43.4453 82.8783 43.6667 82.617 43.832C82.3557 43.9973 82.0597 44.08 81.729 44.08ZM82.009 43.312C82.3237 43.312 82.577 43.2027 82.769 42.984C82.961 42.76 83.057 42.424 83.057 41.976C83.057 41.528 82.961 41.1947 82.769 40.976C82.577 40.7573 82.3237 40.648 82.009 40.648C81.6943 40.648 81.441 40.7573 81.249 40.976C81.057 41.1947 80.961 41.528 80.961 41.976C80.961 42.424 81.0543 42.76 81.241 42.984C81.433 43.2027 81.689 43.312 82.009 43.312ZM85.1219 44V40.992C85.1219 40.8213 85.1166 40.648 85.1059 40.472C85.1006 40.296 85.0873 40.1253 85.0659 39.96H86.0339L86.1459 41.064H85.9859C86.0393 40.7973 86.1273 40.576 86.2499 40.4C86.3779 40.224 86.5326 40.0933 86.7139 40.008C86.8953 39.9227 87.0926 39.88 87.3059 39.88C87.4019 39.88 87.4793 39.8853 87.5379 39.896C87.5966 39.9013 87.6553 39.9147 87.7139 39.936L87.7059 40.816C87.6046 40.7733 87.5166 40.7467 87.4419 40.736C87.3726 40.7253 87.2846 40.72 87.1779 40.72C86.9486 40.72 86.7539 40.768 86.5939 40.864C86.4393 40.96 86.3219 41.0933 86.2419 41.264C86.1673 41.4347 86.1299 41.6293 86.1299 41.848V44H85.1219ZM88.4328 45.816L88.2008 45.024C88.4514 44.9707 88.6621 44.9093 88.8328 44.84C89.0034 44.7707 89.1448 44.68 89.2568 44.568C89.3688 44.456 89.4621 44.312 89.5368 44.136L89.7368 43.664L89.7128 44.056L87.9527 39.96H89.0168L90.2808 43.112H90.0488L91.3208 39.96H92.3288L90.4888 44.224C90.3661 44.512 90.2328 44.7493 90.0888 44.936C89.9448 45.128 89.7901 45.28 89.6248 45.392C89.4594 45.5093 89.2781 45.6 89.0808 45.664C88.8834 45.728 88.6674 45.7787 88.4328 45.816ZM95.1398 44V38.36H96.0438L98.1158 43.024H97.8678L99.9398 38.36H100.836V44H99.8998V39.816H100.188L98.2918 44H97.6758L95.7798 39.816H96.0758V44H95.1398ZM103.573 44.08C103.221 44.08 102.911 43.9973 102.645 43.832C102.378 43.6613 102.17 43.4187 102.021 43.104C101.871 42.7893 101.797 42.4133 101.797 41.976C101.797 41.5387 101.871 41.1653 102.021 40.856C102.17 40.5413 102.378 40.3013 102.645 40.136C102.911 39.9653 103.221 39.88 103.573 39.88C103.914 39.88 104.213 39.9653 104.469 40.136C104.73 40.3013 104.903 40.5253 104.989 40.808H104.901L104.989 39.96H105.949C105.933 40.1253 105.917 40.2933 105.901 40.464C105.89 40.6347 105.885 40.8027 105.885 40.968V44H104.893L104.885 43.168H104.981C104.895 43.4453 104.722 43.6667 104.461 43.832C104.199 43.9973 103.903 44.08 103.573 44.08ZM103.853 43.312C104.167 43.312 104.421 43.2027 104.613 42.984C104.805 42.76 104.901 42.424 104.901 41.976C104.901 41.528 104.805 41.1947 104.613 40.976C104.421 40.7573 104.167 40.648 103.853 40.648C103.538 40.648 103.285 40.7573 103.093 40.976C102.901 41.1947 102.805 41.528 102.805 41.976C102.805 42.424 102.898 42.76 103.085 42.984C103.277 43.2027 103.533 43.312 103.853 43.312ZM106.974 44V40.968C106.974 40.8027 106.968 40.6347 106.958 40.464C106.947 40.2933 106.931 40.1253 106.91 39.96H107.878L107.958 40.76H107.862C107.99 40.4773 108.179 40.2613 108.43 40.112C108.68 39.9573 108.971 39.88 109.302 39.88C109.776 39.88 110.134 40.0133 110.374 40.28C110.614 40.5467 110.734 40.9627 110.734 41.528V44H109.734V41.576C109.734 41.2507 109.67 41.0187 109.542 40.88C109.419 40.736 109.232 40.664 108.982 40.664C108.672 40.664 108.427 40.76 108.246 40.952C108.064 41.144 107.974 41.4 107.974 41.72V44H106.974ZM113.354 44.08C113.002 44.08 112.693 43.9973 112.426 43.832C112.159 43.6613 111.951 43.4187 111.802 43.104C111.653 42.7893 111.578 42.4133 111.578 41.976C111.578 41.5387 111.653 41.1653 111.802 40.856C111.951 40.5413 112.159 40.3013 112.426 40.136C112.693 39.9653 113.002 39.88 113.354 39.88C113.695 39.88 113.994 39.9653 114.25 40.136C114.511 40.3013 114.685 40.5253 114.77 40.808H114.682L114.77 39.96H115.73C115.714 40.1253 115.698 40.2933 115.682 40.464C115.671 40.6347 115.666 40.8027 115.666 40.968V44H114.674L114.666 43.168H114.762C114.677 43.4453 114.503 43.6667 114.242 43.832C113.981 43.9973 113.685 44.08 113.354 44.08ZM113.634 43.312C113.949 43.312 114.202 43.2027 114.394 42.984C114.586 42.76 114.682 42.424 114.682 41.976C114.682 41.528 114.586 41.1947 114.394 40.976C114.202 40.7573 113.949 40.648 113.634 40.648C113.319 40.648 113.066 40.7573 112.874 40.976C112.682 41.1947 112.586 41.528 112.586 41.976C112.586 42.424 112.679 42.76 112.866 42.984C113.058 43.2027 113.314 43.312 113.634 43.312ZM118.627 45.792C118.254 45.792 117.915 45.752 117.611 45.672C117.312 45.592 117.046 45.4693 116.811 45.304L117.027 44.584C117.182 44.6853 117.342 44.768 117.507 44.832C117.672 44.896 117.843 44.944 118.019 44.976C118.195 45.008 118.374 45.024 118.555 45.024C118.928 45.024 119.206 44.9307 119.387 44.744C119.574 44.5627 119.667 44.3013 119.667 43.96V42.992H119.747C119.662 43.2693 119.488 43.4907 119.227 43.656C118.971 43.8213 118.675 43.904 118.339 43.904C117.976 43.904 117.659 43.824 117.387 43.664C117.12 43.4987 116.912 43.264 116.763 42.96C116.614 42.656 116.539 42.2987 116.539 41.888C116.539 41.4773 116.614 41.1227 116.763 40.824C116.912 40.52 117.12 40.288 117.387 40.128C117.659 39.9627 117.976 39.88 118.339 39.88C118.68 39.88 118.976 39.9627 119.227 40.128C119.483 40.288 119.654 40.5067 119.739 40.784L119.667 40.736L119.747 39.96H120.715C120.694 40.1253 120.678 40.2933 120.667 40.464C120.656 40.6347 120.651 40.8027 120.651 40.968V43.84C120.651 44.4747 120.478 44.9573 120.131 45.288C119.79 45.624 119.288 45.792 118.627 45.792ZM118.611 43.136C118.931 43.136 119.184 43.0293 119.371 42.816C119.563 42.5973 119.659 42.288 119.659 41.888C119.659 41.488 119.563 41.1813 119.371 40.968C119.184 40.7547 118.931 40.648 118.611 40.648C118.286 40.648 118.027 40.7547 117.835 40.968C117.643 41.1813 117.547 41.488 117.547 41.888C117.547 42.288 117.643 42.5973 117.835 42.816C118.027 43.0293 118.286 43.136 118.611 43.136ZM123.684 44.08C123.006 44.08 122.476 43.8933 122.092 43.52C121.708 43.1467 121.516 42.6347 121.516 41.984C121.516 41.5627 121.598 41.1947 121.764 40.88C121.929 40.5653 122.158 40.32 122.452 40.144C122.75 39.968 123.097 39.88 123.492 39.88C123.881 39.88 124.206 39.9627 124.468 40.128C124.729 40.2933 124.926 40.5253 125.06 40.824C125.198 41.1227 125.268 41.472 125.268 41.872V42.136H122.324V41.608H124.556L124.42 41.72C124.42 41.3467 124.34 41.0613 124.18 40.864C124.025 40.6667 123.798 40.568 123.5 40.568C123.169 40.568 122.913 40.6853 122.732 40.92C122.556 41.1547 122.468 41.4827 122.468 41.904V42.008C122.468 42.4453 122.574 42.7733 122.788 42.992C123.006 43.2053 123.313 43.312 123.708 43.312C123.937 43.312 124.15 43.2827 124.348 43.224C124.55 43.16 124.742 43.0587 124.924 42.92L125.22 43.592C125.028 43.7467 124.798 43.8667 124.532 43.952C124.265 44.0373 123.982 44.08 123.684 44.08ZM126.114 44V40.968C126.114 40.8027 126.109 40.6347 126.098 40.464C126.088 40.2933 126.072 40.1253 126.05 39.96H127.018L127.098 40.76H127.002C127.114 40.4827 127.285 40.2667 127.514 40.112C127.749 39.9573 128.026 39.88 128.346 39.88C128.666 39.88 128.93 39.9573 129.138 40.112C129.352 40.2613 129.501 40.496 129.586 40.816H129.458C129.57 40.528 129.754 40.3013 130.01 40.136C130.266 39.9653 130.56 39.88 130.89 39.88C131.344 39.88 131.682 40.0133 131.906 40.28C132.13 40.5467 132.242 40.9627 132.242 41.528V44H131.242V41.568C131.242 41.248 131.189 41.0187 131.082 40.88C130.976 40.736 130.805 40.664 130.57 40.664C130.293 40.664 130.074 40.7627 129.914 40.96C129.754 41.152 129.674 41.4133 129.674 41.744V44H128.674V41.568C128.674 41.248 128.621 41.0187 128.514 40.88C128.408 40.736 128.237 40.664 128.002 40.664C127.725 40.664 127.506 40.7627 127.346 40.96C127.192 41.152 127.114 41.4133 127.114 41.744V44H126.114ZM135.262 44.08C134.584 44.08 134.054 43.8933 133.67 43.52C133.286 43.1467 133.094 42.6347 133.094 41.984C133.094 41.5627 133.176 41.1947 133.342 40.88C133.507 40.5653 133.736 40.32 134.03 40.144C134.328 39.968 134.675 39.88 135.07 39.88C135.459 39.88 135.784 39.9627 136.046 40.128C136.307 40.2933 136.504 40.5253 136.638 40.824C136.776 41.1227 136.846 41.472 136.846 41.872V42.136H133.902V41.608H136.134L135.998 41.72C135.998 41.3467 135.918 41.0613 135.758 40.864C135.603 40.6667 135.376 40.568 135.078 40.568C134.747 40.568 134.491 40.6853 134.31 40.92C134.134 41.1547 134.046 41.4827 134.046 41.904V42.008C134.046 42.4453 134.152 42.7733 134.366 42.992C134.584 43.2053 134.891 43.312 135.286 43.312C135.515 43.312 135.728 43.2827 135.926 43.224C136.128 43.16 136.32 43.0587 136.502 42.92L136.798 43.592C136.606 43.7467 136.376 43.8667 136.11 43.952C135.843 44.0373 135.56 44.08 135.262 44.08ZM137.692 44V40.968C137.692 40.8027 137.687 40.6347 137.676 40.464C137.666 40.2933 137.65 40.1253 137.628 39.96H138.596L138.676 40.76H138.58C138.708 40.4773 138.898 40.2613 139.148 40.112C139.399 39.9573 139.69 39.88 140.02 39.88C140.495 39.88 140.852 40.0133 141.092 40.28C141.332 40.5467 141.452 40.9627 141.452 41.528V44H140.452V41.576C140.452 41.2507 140.388 41.0187 140.26 40.88C140.138 40.736 139.951 40.664 139.7 40.664C139.391 40.664 139.146 40.76 138.964 40.952C138.783 41.144 138.692 41.4 138.692 41.72V44H137.692ZM144.241 44.08C143.761 44.08 143.398 43.9547 143.153 43.704C142.907 43.4533 142.785 43.0773 142.785 42.576V40.712H142.009V39.96H142.785V38.928L143.785 38.672V39.96H144.865V40.712H143.785V42.512C143.785 42.7893 143.838 42.984 143.945 43.096C144.051 43.208 144.198 43.264 144.385 43.264C144.486 43.264 144.571 43.256 144.641 43.24C144.715 43.224 144.787 43.2027 144.857 43.176V43.968C144.766 44.0053 144.665 44.032 144.553 44.048C144.446 44.0693 144.342 44.08 144.241 44.08ZM149.787 44.08C149.334 44.08 148.915 44.024 148.531 43.912C148.153 43.7947 147.827 43.6347 147.555 43.432L147.875 42.624C148.057 42.752 148.246 42.8613 148.443 42.952C148.641 43.0373 148.851 43.104 149.075 43.152C149.299 43.1947 149.537 43.216 149.787 43.216C150.209 43.216 150.513 43.1467 150.699 43.008C150.886 42.8693 150.979 42.688 150.979 42.464C150.979 42.2667 150.915 42.1173 150.787 42.016C150.659 41.9093 150.43 41.8213 150.099 41.752L149.195 41.568C148.678 41.4613 148.291 41.2827 148.035 41.032C147.779 40.7813 147.651 40.4453 147.651 40.024C147.651 39.672 147.745 39.3653 147.931 39.104C148.118 38.8427 148.379 38.64 148.715 38.496C149.051 38.352 149.443 38.28 149.891 38.28C150.291 38.28 150.662 38.3387 151.003 38.456C151.345 38.568 151.63 38.7307 151.859 38.944L151.539 39.712C151.31 39.52 151.059 39.3787 150.787 39.288C150.515 39.192 150.211 39.144 149.875 39.144C149.497 39.144 149.201 39.2187 148.987 39.368C148.779 39.512 148.675 39.712 148.675 39.968C148.675 40.1653 148.739 40.3227 148.867 40.44C149.001 40.5573 149.225 40.648 149.539 40.712L150.435 40.888C150.969 40.9947 151.363 41.1707 151.619 41.416C151.875 41.656 152.003 41.9813 152.003 42.392C152.003 42.728 151.913 43.024 151.731 43.28C151.55 43.5307 151.294 43.728 150.963 43.872C150.633 44.0107 150.241 44.08 149.787 44.08ZM152.753 45.816L152.521 45.024C152.772 44.9707 152.982 44.9093 153.153 44.84C153.324 44.7707 153.465 44.68 153.577 44.568C153.689 44.456 153.782 44.312 153.857 44.136L154.057 43.664L154.033 44.056L152.273 39.96H153.337L154.601 43.112H154.369L155.641 39.96H156.649L154.809 44.224C154.686 44.512 154.553 44.7493 154.409 44.936C154.265 45.128 154.11 45.28 153.945 45.392C153.78 45.5093 153.598 45.6 153.401 45.664C153.204 45.728 152.988 45.7787 152.753 45.816ZM158.539 44.08C158.192 44.08 157.872 44.04 157.579 43.96C157.291 43.8747 157.048 43.7573 156.851 43.608L157.131 42.936C157.333 43.0747 157.557 43.1813 157.803 43.256C158.048 43.3307 158.296 43.368 158.547 43.368C158.813 43.368 159.011 43.3227 159.139 43.232C159.272 43.1413 159.339 43.0187 159.339 42.864C159.339 42.7413 159.296 42.6453 159.211 42.576C159.131 42.5013 159 42.4453 158.819 42.408L158.019 42.256C157.677 42.1813 157.416 42.0533 157.235 41.872C157.059 41.6907 156.971 41.4533 156.971 41.16C156.971 40.9093 157.037 40.688 157.171 40.496C157.309 40.304 157.504 40.1547 157.755 40.048C158.011 39.936 158.309 39.88 158.651 39.88C158.949 39.88 159.229 39.92 159.491 40C159.757 40.08 159.981 40.2 160.163 40.36L159.875 41.008C159.709 40.8747 159.52 40.7707 159.307 40.696C159.093 40.6213 158.885 40.584 158.683 40.584C158.405 40.584 158.203 40.6347 158.075 40.736C157.947 40.832 157.883 40.9573 157.883 41.112C157.883 41.2293 157.92 41.328 157.995 41.408C158.075 41.4827 158.197 41.5387 158.363 41.576L159.163 41.728C159.52 41.7973 159.789 41.92 159.971 42.096C160.157 42.2667 160.251 42.5013 160.251 42.8C160.251 43.0667 160.179 43.296 160.035 43.488C159.891 43.68 159.691 43.8267 159.435 43.928C159.179 44.0293 158.88 44.08 158.539 44.08ZM162.795 44.08C162.315 44.08 161.953 43.9547 161.707 43.704C161.462 43.4533 161.339 43.0773 161.339 42.576V40.712H160.563V39.96H161.339V38.928L162.339 38.672V39.96H163.419V40.712H162.339V42.512C162.339 42.7893 162.393 42.984 162.499 43.096C162.606 43.208 162.753 43.264 162.939 43.264C163.041 43.264 163.126 43.256 163.195 43.24C163.27 43.224 163.342 43.2027 163.411 43.176V43.968C163.321 44.0053 163.219 44.032 163.107 44.048C163.001 44.0693 162.897 44.08 162.795 44.08ZM166.012 44.08C165.334 44.08 164.804 43.8933 164.42 43.52C164.036 43.1467 163.844 42.6347 163.844 41.984C163.844 41.5627 163.926 41.1947 164.092 40.88C164.257 40.5653 164.486 40.32 164.78 40.144C165.078 39.968 165.425 39.88 165.82 39.88C166.209 39.88 166.534 39.9627 166.796 40.128C167.057 40.2933 167.254 40.5253 167.388 40.824C167.526 41.1227 167.596 41.472 167.596 41.872V42.136H164.652V41.608H166.884L166.748 41.72C166.748 41.3467 166.668 41.0613 166.508 40.864C166.353 40.6667 166.126 40.568 165.828 40.568C165.497 40.568 165.241 40.6853 165.06 40.92C164.884 41.1547 164.796 41.4827 164.796 41.904V42.008C164.796 42.4453 164.902 42.7733 165.116 42.992C165.334 43.2053 165.641 43.312 166.036 43.312C166.265 43.312 166.478 43.2827 166.676 43.224C166.878 43.16 167.07 43.0587 167.252 42.92L167.548 43.592C167.356 43.7467 167.126 43.8667 166.86 43.952C166.593 44.0373 166.31 44.08 166.012 44.08ZM168.442 44V40.968C168.442 40.8027 168.437 40.6347 168.426 40.464C168.416 40.2933 168.4 40.1253 168.378 39.96H169.346L169.426 40.76H169.33C169.442 40.4827 169.613 40.2667 169.842 40.112C170.077 39.9573 170.354 39.88 170.674 39.88C170.994 39.88 171.258 39.9573 171.466 40.112C171.68 40.2613 171.829 40.496 171.914 40.816H171.786C171.898 40.528 172.082 40.3013 172.338 40.136C172.594 39.9653 172.888 39.88 173.218 39.88C173.672 39.88 174.01 40.0133 174.234 40.28C174.458 40.5467 174.57 40.9627 174.57 41.528V44H173.57V41.568C173.57 41.248 173.517 41.0187 173.41 40.88C173.304 40.736 173.133 40.664 172.898 40.664C172.621 40.664 172.402 40.7627 172.242 40.96C172.082 41.152 172.002 41.4133 172.002 41.744V44H171.002V41.568C171.002 41.248 170.949 41.0187 170.842 40.88C170.736 40.736 170.565 40.664 170.33 40.664C170.053 40.664 169.834 40.7627 169.674 40.96C169.52 41.152 169.442 41.4133 169.442 41.744V44H168.442Z" fill="black" fill-opacity="0.2"/>
</svg>
